<svg width="462" height="77" viewBox="0 0 462 77" fill="none" xmlns="http://www.w3.org/2000/svg">
<path d="M30.2942 8.57978V0L21.4111 0L7.69338 0L0 0L0 8.57978L0 20.6142H7.69338V8.57978H21.4111V68.5216H10.7613V77H21.4111H30.2942H40.944V68.5216H30.2942V8.57978Z" fill="#0F4C75"/>
<path d="M75.9102 0V8.52758L108.918 8.52758V33.143H78.5493V41.6215H108.918V68.5216H75.9102V77H108.918H117.802V68.5216V41.6215V33.143V8.52758V0L108.918 0L75.9102 0Z" fill="#0F4C75"/>
<path d="M149.294 0V8.52758L182.324 8.52758V33.143H151.935V41.6215H182.324V68.5216H149.294V77H182.324H191.215V68.5216V41.6215V33.143V8.52758V0L182.324 0L149.294 0Z" fill="#0F4C75"/>
<path d="M256.233 0L220.667 0V0.0522034V8.52758V27.2747H228.36V8.52758L256.233 8.52758V77H265.116V8.52758V0L256.233 0Z" fill="#0F4C75"/>
<path d="M287.415 11.8783C291.463 4.54969 299.174 0 307.547 0H384.369H415.135C434.245 0 445.02 21.9543 433.329 37.0711L432.223 38.5L409.107 69.4966C405.585 74.2184 400.041 77 394.15 77H380.76C376.009 77 372.43 72.6764 373.318 68.0086C374.719 60.6489 365.727 55.9394 360.475 61.2817L347.385 74.5961C345.873 76.1339 343.807 77 341.651 77H339.394C334.899 77 331.775 72.5265 333.324 68.3064C335.341 61.2406 326.669 56.0912 321.43 61.2434L320.563 62.0968L309.086 73.585C306.902 75.7715 303.938 77 300.848 77C296.608 77 292.704 74.6964 290.654 70.9859L278.852 49.6218C275.028 42.7002 275.028 34.2998 278.852 27.3783L287.415 11.8783Z" fill="#0F4C75"/>
<path d="M287.415 11.8783C291.463 4.54969 299.174 0 307.547 0H384.369H415.135C434.245 0 445.02 21.9543 433.329 37.0711L432.223 38.5L409.107 69.4966C405.585 74.2184 400.041 77 394.15 77H380.76C376.009 77 372.43 72.6764 373.318 68.0086C374.719 60.6489 365.727 55.9394 360.475 61.2817L347.385 74.5961C345.873 76.1339 343.807 77 341.651 77H339.394C334.899 77 331.775 72.5265 333.324 68.3064C335.341 61.2406 326.669 56.0912 321.43 61.2434L320.563 62.0968L309.086 73.585C306.902 75.7715 303.938 77 300.848 77C296.608 77 292.704 74.6964 290.654 70.9859L278.852 49.6218C275.028 42.7002 275.028 34.2998 278.852 27.3783L287.415 11.8783Z" fill="#0F4C75"/>
<ellipse cx="364.65" cy="67.1679" rx="5.31718" ry="6.20968" fill="#0F4C75"/>
<ellipse cx="324.815" cy="68.3061" rx="5.31718" ry="6.20968" fill="#0F4C75"/>
<rect width="22.2882" height="34.3925" rx="11.1441" transform="matrix(0.780437 0.625234 -0.506481 0.862251 417.741 2.48389)" fill="#BBE1FA"/>
<rect x="362.037" y="12.4197" width="17.015" height="17.3871" rx="7" fill="#BBE1FA"/>
<rect x="362.037" y="12.4197" width="17.015" height="17.3871" rx="7" fill="#BBE1FA"/>
<rect x="336.515" y="12.4197" width="17.015" height="17.3871" rx="7" fill="#BBE1FA"/>
<rect x="336.515" y="12.4197" width="17.015" height="17.3871" rx="7" fill="#BBE1FA"/>
<rect x="310.992" y="12.4197" width="17.015" height="17.3871" rx="7" fill="#BBE1FA"/>
<rect x="310.992" y="12.4197" width="17.015" height="17.3871" rx="7" fill="#BBE1FA"/>
</svg>
