<svg width="463" height="77" viewBox="0 0 463 77" fill="none" xmlns="http://www.w3.org/2000/svg">
<path d="M30.2942 8.57978V0L21.4111 0L7.69338 0L0 0L0 8.57978L0 20.6142H7.69338V8.57978H21.4111V68.5216H10.7613V77H21.4111H30.2942H40.944V68.5216H30.2942V8.57978Z" fill="white"/>
<path d="M75.9097 0V8.52758L108.917 8.52758V33.143H78.5488V41.6215H108.917V68.5216H75.9097V77H108.917H117.802V68.5216V41.6215V33.143V8.52758V0L108.917 0L75.9097 0Z" fill="white"/>
<path d="M149.294 0V8.52758L182.324 8.52758V33.143H151.935V41.6215H182.324V68.5216H149.294V77H182.324H191.215V68.5216V41.6215V33.143V8.52758V0L182.324 0L149.294 0Z" fill="white"/>
<path d="M256.233 0L220.667 0V0.0522034V8.52758V27.2747H228.36V8.52758L256.233 8.52758V77H265.116V8.52758V0L256.233 0Z" fill="white"/>
<path d="M287.415 11.8783C291.463 4.54969 299.174 0 307.547 0H384.369H415.135C434.245 0 445.02 21.9543 433.329 37.0711L432.223 38.5L409.107 69.4965C405.585 74.2184 400.041 77 394.15 77H380.76C376.009 77 372.43 72.6764 373.319 68.0086V68.0086C374.719 60.6489 365.727 55.9394 360.475 61.2818L347.385 74.5961C345.873 76.1339 343.807 77 341.651 77H339.394C334.899 77 331.775 72.5265 333.324 68.3065V68.3065V68.3065C335.341 61.2406 326.669 56.0912 321.43 61.2434L320.563 62.0968L309.086 73.585C306.902 75.7715 303.938 77 300.848 77V77C296.608 77 292.704 74.6965 290.654 70.9859L278.852 49.6218C275.028 42.7002 275.028 34.2998 278.852 27.3783L287.415 11.8783Z" fill="white"/>
<path d="M287.708 11.8783C291.756 4.54969 299.467 0 307.84 0H384.662H415.428C434.538 0 445.313 21.9543 433.622 37.0711L432.516 38.5L409.4 69.4965C405.878 74.2184 400.334 77 394.443 77H381.053C376.302 77 372.723 72.6764 373.611 68.0086V68.0086C375.012 60.6489 366.02 55.9394 360.768 61.2818L347.678 74.5961C346.166 76.1339 344.1 77 341.944 77H339.687C335.192 77 332.068 72.5265 333.617 68.3065V68.3065V68.3065C335.634 61.2406 326.962 56.0912 321.723 61.2434L320.856 62.0968L309.379 73.585C307.195 75.7715 304.231 77 301.14 77V77C296.901 77 292.997 74.6965 290.947 70.9859L279.145 49.6218C275.321 42.7002 275.321 34.2998 279.145 27.3783L287.708 11.8783Z" fill="white"/>
<ellipse cx="364.65" cy="67.1677" rx="5.31718" ry="6.20968" fill="white"/>
<ellipse cx="324.815" cy="68.3064" rx="5.31718" ry="6.20968" fill="white"/>
<rect width="22.2882" height="34.3925" rx="11.1441" transform="matrix(0.780437 0.625234 -0.506481 0.862251 417.741 2.48438)" fill="#0F4C75"/>
<rect x="362.037" y="12.4199" width="17.015" height="17.3871" rx="7" fill="#0F4C75"/>
<rect x="362.037" y="12.4199" width="17.015" height="17.3871" rx="7" fill="#0F4C75"/>
<rect x="336.515" y="12.4199" width="17.015" height="17.3871" rx="7" fill="#0F4C75"/>
<rect x="336.515" y="12.4199" width="17.015" height="17.3871" rx="7" fill="#0F4C75"/>
<rect x="310.992" y="12.4199" width="17.015" height="17.3871" rx="7" fill="#0F4C75"/>
<rect x="310.992" y="12.4199" width="17.015" height="17.3871" rx="7" fill="#0F4C75"/>
</svg>
