<svg width="1440" height="1024" viewBox="0 0 1440 1024" fill="none" xmlns="http://www.w3.org/2000/svg">
<g clip-path="url(#clip0_18_10594)">
<rect width="1440" height="1024" fill="#0F4C75"/>
<path d="M486.877 1011.51C1334.47 832.452 562.257 467.579 758.999 249.5C889.424 104.93 1077.96 132.828 1006 48.5001C752.998 -248 66.0154 -27.644 -31.0009 -36.9999C-394.591 -72.0631 -1028.8 1331.71 486.877 1011.51Z" fill="#BBE1FA"/>
<g opacity="0.19">
<g opacity="0.2">
<path d="M794.115 877.437C795.648 882.384 719.495 910.385 624.024 939.972C528.553 969.56 449.912 989.531 448.379 984.584C448.034 983.472 451.593 981.205 458.4 978.024L782.14 877.693C789.554 876.467 793.77 876.324 794.115 877.437Z" fill="#1F1F1F"/>
</g>
<path d="M713.304 855.735L481.646 927.528L490.34 955.581L721.998 883.787L713.304 855.735Z" fill="#6E4D42"/>
<path d="M722.353 883.974L490.154 955.935L481.293 927.341L713.492 855.38L722.353 883.974ZM490.528 955.226L721.645 883.601L713.118 856.089L482.001 927.714L490.528 955.226Z" fill="#1F1F1F"/>
<path d="M734.918 763.583L767.005 867.12C767.278 867.999 767.171 868.91 766.768 869.665C766.379 870.44 765.669 871.061 764.779 871.337L718.671 885.627C717.781 885.903 716.845 885.791 716.085 885.372C715.326 884.977 714.723 884.287 714.45 883.408L712.763 877.963C712.632 877.541 712.49 877.121 712.329 876.721C711.589 874.812 710.538 873.075 709.258 871.575C709.176 871.471 709.09 871.374 709.005 871.277C708.179 870.347 707.269 869.504 706.294 868.769C702.109 865.631 696.633 864.344 691.266 865.804C687.671 866.782 684.661 868.789 682.443 871.417C680.22 874.051 678.794 877.304 678.396 880.763C678.38 880.891 678.364 881.02 678.362 881.15C678.265 882.113 678.259 883.091 678.335 884.074C678.338 884.085 678.334 884.093 678.338 884.104C678.351 884.347 678.376 884.587 678.408 884.83C678.447 885.133 678.491 885.434 678.542 885.74C678.615 886.193 678.713 886.65 678.829 887.103C678.906 887.394 678.982 887.679 679.072 887.966L680.883 893.811C681.433 895.586 680.437 897.476 678.656 898.028L576.855 929.577C575.079 930.127 573.189 929.132 572.639 927.356L570.952 921.912C570.728 921.191 570.463 920.495 570.156 919.824C566.635 911.989 557.928 907.454 549.466 909.749C540.413 912.209 535.024 921.23 536.814 930.157C536.934 930.744 537.084 931.327 537.266 931.913L538.848 937.019C539.383 938.744 538.639 941.087 537.116 941.893L532.81 943.227C531.029 943.779 529.139 942.784 528.589 941.008L526.903 935.57C526.816 935.288 526.721 935.002 526.617 934.726C526.547 934.519 526.463 934.31 526.382 934.107C526.346 934.013 526.307 933.926 526.266 933.834C526.172 933.61 526.074 933.393 525.974 933.17C525.962 933.15 525.955 933.127 525.942 933.106C525.817 932.842 525.682 932.588 525.548 932.333C521.72 925.204 513.462 921.222 505.416 923.401C495.769 926.02 490.287 936.095 493.221 945.563L494.805 950.675C495.436 952.71 494.038 954.817 491.908 955.02L449.222 960.756C446.815 961.082 444.521 959.618 443.801 957.296L414.695 863.379C412.55 856.458 416.42 849.113 423.336 846.97L719.165 755.289C725.81 753.229 732.859 756.938 734.918 763.583Z" fill="#0F4C75"/>
<path d="M764.864 871.607L718.756 885.896C717.818 886.187 716.795 886.086 715.949 885.619C715.099 885.177 714.469 884.42 714.181 883.491L712.494 878.047C712.349 877.578 712.209 877.179 712.067 876.826C711.348 874.971 710.331 873.267 709.043 871.758C708.958 871.649 708.875 871.556 708.793 871.463C707.979 870.547 707.081 869.716 706.124 868.994C701.81 865.758 696.421 864.695 691.341 866.076C687.93 867.005 684.926 868.914 682.66 871.599C680.445 874.224 679.068 877.404 678.678 880.795C678.663 880.916 678.648 881.035 678.646 881.155C678.552 882.095 678.542 883.051 678.616 884.02L678.621 884.088C678.635 884.324 678.659 884.556 678.69 884.792C678.728 885.093 678.771 885.391 678.822 885.692C678.89 886.115 678.985 886.565 679.104 887.032C679.18 887.316 679.255 887.598 679.343 887.882L681.154 893.726C681.75 895.65 680.668 897.7 678.741 898.297L576.939 929.847C575.016 930.443 572.966 929.363 572.37 927.44L570.683 921.996C570.464 921.289 570.2 920.598 569.9 919.941C566.373 912.094 557.621 907.83 549.541 910.021C540.765 912.397 535.312 921.222 537.093 930.1C537.21 930.675 537.36 931.257 537.537 931.829L539.12 936.935C539.718 938.865 538.844 941.299 537.249 942.142L532.895 943.497C530.968 944.094 528.915 943.015 528.319 941.091L526.634 935.653C526.548 935.376 526.455 935.096 526.353 934.825C526.281 934.614 526.2 934.41 526.12 934.211C526.088 934.125 526.055 934.052 526.02 933.974C525.925 933.749 525.84 933.561 525.755 933.37L525.687 933.227C525.567 932.973 525.437 932.728 525.308 932.483C521.392 925.189 513.246 921.573 505.49 923.673C500.914 924.915 497.139 927.884 494.858 932.033C492.577 936.184 492.092 940.959 493.492 945.479L495.077 950.591C495.403 951.643 495.239 952.774 494.628 953.692C494.016 954.61 493.033 955.197 491.936 955.301L449.261 961.036C446.705 961.382 444.295 959.844 443.532 957.38L414.426 863.462C412.238 856.405 416.198 848.885 423.253 846.698L719.082 755.018C725.863 752.916 733.089 756.721 735.189 763.498L767.277 867.036C767.564 867.965 767.473 868.945 767.019 869.797C766.589 870.654 765.802 871.316 764.864 871.607ZM690.58 865.708C690.782 865.645 690.987 865.586 691.193 865.53C696.442 864.102 702.009 865.2 706.464 868.542C707.452 869.286 708.378 870.143 709.217 871.088C709.307 871.19 709.396 871.291 709.481 871.4C710.803 872.948 711.853 874.707 712.594 876.618C712.74 876.982 712.885 877.396 713.035 877.879L714.722 883.323C714.965 884.107 715.495 884.745 716.216 885.12C716.934 885.516 717.797 885.601 718.589 885.355L764.696 871.066C765.488 870.821 766.152 870.263 766.517 869.537C766.902 868.813 766.979 867.987 766.736 867.203L734.649 763.666C732.641 757.186 725.733 753.549 719.25 755.558L423.42 847.239C416.664 849.333 412.872 856.535 414.966 863.295L444.072 957.212C444.754 959.411 446.904 960.783 449.185 960.474L491.871 954.738C492.811 954.649 493.64 954.153 494.157 953.378C494.673 952.602 494.812 951.647 494.536 950.758L492.952 945.646C491.505 940.978 492.006 936.047 494.362 931.76C496.717 927.476 500.616 924.405 505.342 923.127C513.354 920.958 521.766 924.688 525.798 932.198C525.942 932.471 526.075 932.723 526.199 932.984L526.271 933.138C526.359 933.333 526.445 933.525 526.528 933.723C526.577 933.832 526.614 933.916 526.648 934.006C526.729 934.208 526.814 934.422 526.886 934.633C526.989 934.907 527.086 935.198 527.175 935.485L528.86 940.924C529.364 942.549 531.099 943.461 532.727 942.956L537.033 941.622C538.334 940.928 539.094 938.764 538.579 937.102L536.997 931.996C536.814 931.407 536.659 930.807 536.538 930.213C534.699 921.042 540.339 911.926 549.393 909.475C557.739 907.211 566.776 911.61 570.415 919.707C570.725 920.384 570.997 921.098 571.224 921.828L572.911 927.272C573.414 928.897 575.147 929.81 576.772 929.306L678.574 897.756C680.202 897.252 681.117 895.519 680.614 893.894L678.802 888.049C678.712 887.758 678.635 887.469 678.556 887.175C678.432 886.688 678.333 886.221 678.264 885.784C678.212 885.477 678.167 885.171 678.129 884.865C678.097 884.627 678.073 884.392 678.058 884.154L678.054 884.095C677.975 883.082 677.984 882.082 678.081 881.121C678.082 881.004 678.099 880.866 678.116 880.728C678.519 877.228 679.94 873.944 682.227 871.233C684.432 868.623 687.309 866.722 690.58 865.708Z" fill="#1F1F1F"/>
<path d="M757.857 837.607L762.649 853.072L708.702 869.791C708.621 869.686 708.535 869.589 708.449 869.492C707.624 868.562 706.714 867.72 705.739 866.984C701.554 863.846 696.077 862.56 690.711 864.019C687.116 864.997 684.106 867.005 681.887 869.632C679.665 872.267 678.239 875.519 677.841 878.978C677.825 879.107 677.809 879.235 677.806 879.366L598.092 904.07C596.181 904.662 594.102 904.312 592.483 903.134L578.786 893.103L573.402 889.163C571.786 887.977 569.709 887.632 567.799 888.225L435.135 929.339L430.342 913.874L570.789 870.347C572.7 869.755 574.777 870.1 576.392 871.286L590.094 881.315L595.473 885.257C597.092 886.435 599.172 886.785 601.082 886.193L757.857 837.607Z" fill="white"/>
<g opacity="0.3">
<path d="M491.26 942.364L492.508 941.978C492.622 943.169 492.855 944.374 493.223 945.561L494.806 950.671C495.438 952.708 494.039 954.813 491.912 955.019L449.228 960.752C446.818 961.079 444.527 959.615 443.807 957.292L441.951 951.303L446.588 949.866L488.568 944.228C489.792 944.112 490.771 943.364 491.26 942.364Z" fill="#1F1F1F"/>
</g>
<g opacity="0.3">
<path d="M529.459 932.435L536.808 930.158C536.929 930.745 537.079 931.328 537.26 931.914L538.843 937.02C539.377 938.745 538.633 941.088 537.11 941.894L532.804 943.228C531.023 943.78 529.133 942.785 528.583 941.009L526.897 935.571C526.808 935.283 526.715 935.003 526.611 934.727C526.539 934.514 526.458 934.311 526.376 934.108C526.341 934.014 526.301 933.927 526.261 933.835C526.166 933.61 526.067 933.388 525.969 933.171C525.956 933.151 525.949 933.128 525.936 933.107C525.811 932.843 525.682 932.587 525.542 932.334C525.452 932.164 525.357 931.996 525.262 931.828L526.056 931.581C526.913 932.452 528.214 932.821 529.459 932.435Z" fill="#6E4D42"/>
<path d="M532.89 943.499C530.963 944.096 528.911 943.017 528.315 941.093L526.629 935.654C526.542 935.372 526.451 935.098 526.349 934.826C526.275 934.61 526.195 934.412 526.115 934.213C526.083 934.127 526.05 934.053 526.016 933.976C525.908 933.722 525.81 933.502 525.713 933.288L525.682 933.228C525.56 932.97 525.434 932.719 525.297 932.471C525.205 932.299 525.112 932.133 525.018 931.967L524.844 931.661L526.139 931.26L526.26 931.383C527.073 932.209 528.268 932.509 529.377 932.165L537.025 929.795L537.088 930.101C537.206 930.677 537.355 931.259 537.532 931.831L539.115 936.937C539.713 938.867 538.839 941.301 537.244 942.144L532.89 943.499ZM525.682 931.994C525.721 932.063 525.758 932.132 525.794 932.201C525.935 932.455 526.067 932.717 526.194 932.986L526.229 933.055C526.328 933.274 526.429 933.499 526.524 933.725C526.572 933.834 526.609 933.918 526.643 934.008C526.724 934.21 526.808 934.418 526.882 934.635C526.984 934.908 527.079 935.194 527.17 935.487L528.856 940.925C529.359 942.551 531.094 943.462 532.723 942.958L537.028 941.623C538.329 940.93 539.089 938.766 538.574 937.104L536.992 931.998C536.84 931.509 536.709 931.014 536.599 930.52L529.545 932.706C528.288 933.095 526.939 932.787 525.982 931.901L525.682 931.994Z" fill="#1F1F1F"/>
</g>
<g opacity="0.3">
<path d="M678.337 884.073C678.34 884.084 678.336 884.091 678.34 884.103C678.359 884.344 678.384 884.583 678.41 884.828C678.448 885.131 678.492 885.433 678.544 885.738C678.622 886.189 678.721 886.647 678.83 887.101C678.908 887.392 678.984 887.677 679.073 887.965L680.885 893.809C681.435 895.584 680.439 897.474 678.658 898.026L576.856 929.576C575.081 930.126 573.191 929.13 572.641 927.355L570.954 921.911C570.73 921.189 570.465 920.493 570.158 919.822L675.313 887.234C676.677 886.811 677.572 885.613 677.677 884.277L678.337 884.073Z" fill="#1F1F1F"/>
</g>
<g opacity="0.3">
<path d="M764.349 858.55L767.163 867.631C767.392 868.37 767.247 869.15 766.819 869.816C766.395 870.495 765.672 871.059 764.778 871.336L718.675 885.624C717.781 885.901 716.866 885.845 716.132 885.525C715.403 885.217 714.842 884.656 714.613 883.916L713.192 879.332C713.082 878.978 712.957 878.628 712.819 878.29C712.493 877.476 712.083 876.709 711.605 875.991L712.334 875.765C712.605 876.055 712.939 876.284 713.318 876.444C714.052 876.764 714.967 876.82 715.861 876.543L761.964 862.255C762.858 861.978 763.581 861.415 764.005 860.736C764.433 860.069 764.578 859.29 764.349 858.55Z" fill="#1F1F1F"/>
</g>
<g opacity="0.55">
<path d="M734.919 763.584L736.433 768.468C734.374 761.825 727.326 758.112 720.683 760.171L424.852 851.852C417.938 853.995 414.07 861.338 416.214 868.259L414.701 863.375C412.556 856.454 416.424 849.11 423.338 846.968L719.17 755.286C725.813 753.228 732.861 756.941 734.919 763.584Z" fill="white"/>
</g>
<path d="M749.816 839.134L757.582 836.727L734.914 763.584L725.27 766.573C722.987 767.28 721.71 769.704 722.418 771.987L741.941 834.985C742.97 838.305 746.496 840.163 749.816 839.134Z" fill="#2CBEFF"/>
<g opacity="0.3">
<path d="M754.609 837.648L749.818 839.132C746.498 840.161 742.971 838.308 741.943 834.988L722.419 771.99C721.711 769.707 722.985 767.28 725.268 766.572L730.058 765.088C727.776 765.795 726.502 768.222 727.209 770.505L746.733 833.503C747.762 836.823 751.289 838.676 754.609 837.648Z" fill="#1F1F1F"/>
</g>
<path d="M644.931 831.555L671.734 823.249C674.431 822.413 675.941 819.548 675.105 816.85L666.798 790.048C665.962 787.35 663.098 785.841 660.4 786.677L633.597 794.983C630.9 795.819 629.391 798.684 630.227 801.382L638.533 828.184C639.369 830.882 642.234 832.391 644.931 831.555Z" fill="#2CBEFF"/>
<path d="M599.836 845.532L626.638 837.225C629.336 836.389 630.845 833.525 630.009 830.827L621.703 804.024C620.866 801.327 618.002 799.817 615.304 800.654L588.502 808.96C585.804 809.796 584.295 812.661 585.131 815.358L593.437 842.161C594.273 844.858 597.138 846.368 599.836 845.532Z" fill="#2CBEFF"/>
<path d="M554.748 859.504L581.55 851.198C584.248 850.362 585.757 847.497 584.921 844.799L576.615 817.997C575.779 815.299 572.914 813.79 570.216 814.626L543.414 822.932C540.716 823.768 539.207 826.633 540.043 829.331L548.349 856.133C549.186 858.831 552.05 860.34 554.748 859.504Z" fill="#2CBEFF"/>
<path d="M509.662 873.477L536.464 865.17C539.162 864.334 540.671 861.47 539.835 858.772L531.529 831.97C530.693 829.272 527.828 827.763 525.13 828.599L498.328 836.905C495.63 837.741 494.121 840.606 494.957 843.304L503.264 870.106C504.1 872.804 506.964 874.313 509.662 873.477Z" fill="#2CBEFF"/>
<path d="M486.432 845.946L494.739 872.751C495.245 874.382 494.89 876.081 493.937 877.34C493.313 878.168 492.428 878.821 491.368 879.149L464.571 887.454C461.873 888.29 459.009 886.781 458.172 884.083L449.865 857.278C449.125 854.889 450.228 852.364 452.367 851.24C452.644 851.096 452.928 850.976 453.236 850.88L480.034 842.575C482.731 841.739 485.596 843.248 486.432 845.946Z" fill="#2CBEFF"/>
<g opacity="0.45">
<path d="M489.685 879.67L477.661 883.397L451.873 863.755L449.865 857.278C449.125 854.888 450.228 852.363 452.367 851.239L489.685 879.67Z" fill="white"/>
</g>
<g opacity="0.45">
<path d="M493.231 867.848L494.749 872.748C495.254 874.379 494.9 876.078 493.947 877.337L457.484 849.563L465.833 846.976L493.231 867.848Z" fill="white"/>
</g>
<g opacity="0.45">
<path d="M534.777 865.696L522.753 869.423L496.964 849.782L494.957 843.304C494.216 840.914 495.32 838.389 497.459 837.265L534.777 865.696Z" fill="white"/>
</g>
<g opacity="0.45">
<path d="M538.315 853.875L539.833 858.775C540.338 860.406 539.984 862.105 539.031 863.364L502.568 835.591L510.917 833.003L538.315 853.875Z" fill="white"/>
</g>
<g opacity="0.45">
<path d="M579.863 851.724L567.839 855.45L542.05 835.809L540.043 829.331C539.302 826.942 540.406 824.417 542.545 823.293L579.863 851.724Z" fill="white"/>
</g>
<g opacity="0.45">
<path d="M583.4 839.904L584.919 844.804C585.424 846.434 585.07 848.134 584.117 849.393L547.654 821.619L556.003 819.032L583.4 839.904Z" fill="white"/>
</g>
<g opacity="0.45">
<path d="M624.962 837.747L612.939 841.473L587.15 821.832L585.142 815.354C584.402 812.965 585.506 810.44 587.645 809.316L624.962 837.747Z" fill="white"/>
</g>
<g opacity="0.45">
<path d="M628.488 825.929L630.007 830.829C630.512 832.46 630.158 834.159 629.205 835.418L592.742 807.645L601.091 805.057L628.488 825.929Z" fill="white"/>
</g>
<g opacity="0.45">
<path d="M670.046 823.775L658.023 827.501L632.234 807.86L630.226 801.382C629.486 798.993 630.59 796.468 632.729 795.344L670.046 823.775Z" fill="white"/>
</g>
<g opacity="0.45">
<path d="M673.58 811.955L675.099 816.855C675.604 818.486 675.25 820.185 674.297 821.444L637.834 793.67L646.183 791.083L673.58 811.955Z" fill="white"/>
</g>
<g opacity="0.3">
<path d="M666.522 789.359L639.649 797.687C636.951 798.523 635.442 801.388 636.278 804.085L644.585 830.89C644.66 831.131 644.75 831.367 644.857 831.58C642.183 832.36 639.363 830.862 638.534 828.186L630.227 801.381C629.391 798.684 630.9 795.819 633.598 794.983L660.395 786.678C662.852 785.917 665.452 787.104 666.522 789.359Z" fill="#1F1F1F"/>
<path d="M621.42 803.337L594.548 811.665C591.85 812.501 590.341 815.365 591.177 818.063L599.484 844.868C599.559 845.109 599.648 845.344 599.755 845.558C597.081 846.338 594.261 844.839 593.432 842.164L585.125 815.359C584.289 812.661 585.798 809.797 588.496 808.961L615.293 800.656C617.751 799.894 620.351 801.082 621.42 803.337Z" fill="#1F1F1F"/>
<path d="M576.334 817.309L549.462 825.637C546.764 826.473 545.255 829.338 546.091 832.035L554.398 858.84C554.473 859.081 554.562 859.317 554.67 859.53C551.995 860.31 549.175 858.812 548.346 856.136L540.039 829.331C539.203 826.634 540.712 823.769 543.41 822.933L570.207 814.628C572.665 813.867 575.265 815.054 576.334 817.309Z" fill="#1F1F1F"/>
<path d="M531.252 831.281L504.38 839.609C501.682 840.445 500.173 843.309 501.009 846.007L509.316 872.812C509.391 873.053 509.48 873.289 509.587 873.502C506.913 874.282 504.093 872.783 503.264 870.108L494.957 843.303C494.121 840.605 495.63 837.741 498.328 836.905L525.125 828.6C527.583 827.839 530.183 829.026 531.252 831.281Z" fill="#1F1F1F"/>
<path d="M486.16 845.256L459.288 853.584C456.59 854.42 455.081 857.284 455.917 859.982L464.224 886.787C464.299 887.028 464.388 887.263 464.496 887.477C461.822 888.257 459.002 886.758 458.172 884.083L449.865 857.278C449.029 854.58 450.538 851.716 453.236 850.88L480.034 842.575C482.491 841.813 485.091 843.001 486.16 845.256Z" fill="#1F1F1F"/>
</g>
<g opacity="0.55">
<path d="M671.952 792.979L680.259 819.784C681.096 822.482 679.586 825.346 676.889 826.182L650.084 834.489C647.611 835.256 644.999 834.055 643.935 831.766C644.27 831.728 644.595 831.66 644.925 831.558L671.723 823.253C674.42 822.417 675.93 819.553 675.093 816.855L666.786 790.05C666.716 789.824 666.634 789.611 666.536 789.403C668.913 789.152 671.216 790.604 671.952 792.979Z" fill="white"/>
<path d="M626.861 806.954L635.168 833.759C636.004 836.456 634.495 839.321 631.797 840.157L604.992 848.464C602.519 849.23 599.907 848.03 598.844 845.741C599.178 845.703 599.503 845.635 599.833 845.533L626.631 837.228C629.329 836.392 630.838 833.528 630.002 830.83L621.695 804.025C621.625 803.799 621.542 803.586 621.445 803.378C623.821 803.127 626.125 804.579 626.861 806.954Z" fill="white"/>
<path d="M581.773 820.927L590.08 847.732C590.916 850.43 589.407 853.294 586.709 854.13L559.904 862.437C557.432 863.204 554.819 862.003 553.756 859.714C554.09 859.676 554.415 859.608 554.745 859.506L581.543 851.201C584.241 850.365 585.75 847.501 584.914 844.803L576.607 817.998C576.537 817.772 576.454 817.559 576.357 817.351C578.733 817.1 581.037 818.552 581.773 820.927Z" fill="white"/>
<path d="M536.689 834.899L544.996 861.704C545.832 864.402 544.323 867.266 541.625 868.102L514.82 876.409C512.348 877.176 509.735 875.976 508.672 873.686C509.006 873.648 509.331 873.581 509.661 873.478L536.459 865.173C539.157 864.337 540.666 861.473 539.83 858.775L531.523 831.97C531.453 831.745 531.37 831.531 531.273 831.323C533.649 831.072 535.953 832.524 536.689 834.899Z" fill="white"/>
<path d="M491.595 848.874L499.902 875.679C500.738 878.377 499.229 881.241 496.531 882.077L469.726 890.384C467.254 891.151 464.642 889.95 463.578 887.661C463.912 887.623 464.237 887.555 464.568 887.453L491.365 879.148C494.063 878.312 495.572 875.448 494.736 872.75L486.429 845.945C486.359 845.719 486.276 845.506 486.179 845.298C488.556 845.047 490.859 846.499 491.595 848.874Z" fill="white"/>
</g>
<path d="M428.834 863.796L437.141 890.601C437.288 891.074 437.362 891.554 437.367 892.022C437.402 893.65 436.653 895.192 435.365 896.167C434.902 896.533 434.364 896.815 433.77 896.999L425.88 899.444L414.545 862.87L422.435 860.425C425.133 859.589 427.998 861.098 428.834 863.796Z" fill="#2CBEFF"/>
<g opacity="0.55">
<path d="M433.506 866.035L441.813 892.84C442.649 895.538 441.14 898.402 438.442 899.238L433.957 900.628C432.076 901.211 430.079 900.159 429.496 898.278L429.257 897.506L433.517 896.185C436.215 895.349 437.724 892.485 436.888 889.787L428.581 862.982C428.523 862.794 428.459 862.616 428.381 862.443C430.653 862.332 432.8 863.758 433.506 866.035Z" fill="white"/>
</g>
<g opacity="0.45">
<path d="M437.366 892.022C437.401 893.65 436.652 895.192 435.365 896.167L432.604 896.348L422.544 888.684L419.318 878.276L437.366 892.022Z" fill="white"/>
</g>
<g opacity="0.45">
<path d="M433.078 877.496L435.391 884.958L417.061 870.995L414.951 864.186L415.419 864.049L433.078 877.496Z" fill="white"/>
</g>
<path d="M758.166 838.607L750.401 841.013C746.05 842.362 741.413 839.919 740.065 835.568L720.541 772.57C719.514 769.255 721.375 765.722 724.69 764.695L734.334 761.706C735.371 761.385 736.473 761.965 736.795 763.003L759.462 836.146C759.784 837.183 759.203 838.285 758.166 838.607ZM725.854 768.452C724.611 768.838 723.913 770.162 724.298 771.406L743.822 834.404C744.528 836.683 746.957 837.962 749.236 837.256L755.123 835.432L733.619 766.046L725.854 768.452Z" fill="#1F1F1F"/>
<path d="M434.55 910.62L429.791 912.095L442.367 952.674L447.126 951.199C449.202 950.556 450.362 948.353 449.719 946.277L439.472 913.213C438.829 911.138 436.626 909.977 434.55 910.62Z" fill="#EF3D30"/>
<g opacity="0.3">
<path d="M447.717 939.798L449.725 946.275C450.368 948.349 449.206 950.554 447.132 951.197L442.375 952.671L440.368 946.194L445.124 944.719C447.199 944.077 448.36 941.872 447.717 939.798Z" fill="#1F1F1F"/>
</g>
<g opacity="0.55">
<path d="M717.324 773.912L743.895 859.647C745.033 863.322 742.98 867.22 739.305 868.358L735.864 869.425C739.538 868.286 741.592 864.388 740.453 860.714L713.883 774.978C713.121 772.521 710.513 771.147 708.055 771.908L711.497 770.842C713.954 770.08 716.563 771.454 717.324 773.912Z" fill="white"/>
</g>
<g opacity="0.55">
<path d="M439.477 913.211L440.933 917.908C440.29 915.834 438.085 914.672 436.011 915.315L431.254 916.789L429.799 912.092L434.556 910.618C436.63 909.975 438.835 911.137 439.477 913.211Z" fill="white"/>
</g>
<path d="M713.875 774.981L727.983 820.506L691.409 831.84L677.301 786.316C676.893 785.001 677.096 783.637 677.756 782.551C678.317 781.595 679.228 780.843 680.371 780.489L708.047 771.911C710.505 771.15 713.113 772.524 713.875 774.981Z" fill="#2CBEFF"/>
<path d="M447.709 953.078L442.949 954.553C441.912 954.874 440.81 954.294 440.488 953.256L427.912 912.677C427.591 911.639 428.171 910.537 429.209 910.216L433.968 908.741C437.076 907.778 440.388 909.522 441.351 912.63L451.598 945.695C452.561 948.803 450.817 952.115 447.709 953.078ZM443.664 950.213L446.544 949.32C447.58 948.999 448.162 947.895 447.841 946.859L437.594 913.795C437.273 912.759 436.169 912.177 435.133 912.498L432.252 913.391L443.664 950.213Z" fill="#1F1F1F"/>
<path d="M447.797 940.078L439.281 942.717C438.243 943.039 437.141 942.458 436.82 941.421L432.686 928.082C432.364 927.045 432.945 925.943 433.982 925.621L442.499 922.982C443.536 922.66 444.638 923.241 444.96 924.278L449.094 937.617C449.415 938.654 448.835 939.756 447.797 940.078ZM439.995 938.378L444.754 936.903L441.785 927.322L437.025 928.797L439.995 938.378Z" fill="#1F1F1F"/>
<g opacity="0.45">
<path d="M721.077 822.645L706.618 827.126L683.246 805.5L677.3 786.315C676.893 785 677.096 783.636 677.756 782.55L721.077 822.645Z" fill="white"/>
</g>
<g opacity="0.45">
<path d="M722.004 801.206L726.985 817.28L685.512 778.894L694.785 776.02L722.004 801.206Z" fill="white"/>
</g>
<path d="M736.438 871.307L724.504 875.006C721.114 876.056 717.456 874.616 715.61 871.504C712.65 866.543 707.937 862.961 702.341 861.42C699.723 860.698 697.692 858.758 696.908 856.229L675.422 786.898C674.341 783.41 676.299 779.691 679.788 778.61L707.465 770.033C710.954 768.952 714.672 770.91 715.753 774.399L742.324 860.135C743.781 864.838 741.141 869.85 736.438 871.307ZM680.953 782.367C679.536 782.807 678.74 784.317 679.179 785.734L700.666 855.065C701.05 856.306 702.067 857.264 703.385 857.627C709.964 859.439 715.506 863.653 718.991 869.492C719.908 871.038 721.695 871.758 723.34 871.248L735.273 867.55C737.905 866.734 739.382 863.93 738.567 861.299L711.996 775.564C711.557 774.146 710.047 773.351 708.63 773.79L680.953 782.367Z" fill="#1F1F1F"/>
<path d="M672.31 825.129L645.508 833.435C641.779 834.591 637.804 832.497 636.649 828.768L628.342 801.966C627.186 798.236 629.28 794.262 633.009 793.106L659.812 784.8C663.541 783.644 667.515 785.738 668.671 789.467L676.978 816.27C678.133 819.999 676.04 823.973 672.31 825.129ZM634.174 796.864C632.516 797.377 631.586 799.144 632.1 800.801L640.406 827.604C640.92 829.261 642.686 830.192 644.343 829.678L671.146 821.372C672.803 820.858 673.734 819.092 673.22 817.434L664.914 790.632C664.4 788.974 662.634 788.043 660.976 788.557L634.174 796.864Z" fill="#1F1F1F"/>
<path d="M627.226 839.102L600.424 847.409C596.695 848.564 592.72 846.471 591.565 842.741L583.258 815.939C582.102 812.209 584.196 808.235 587.925 807.079L614.728 798.773C618.457 797.617 622.431 799.711 623.587 803.44L631.894 830.243C633.049 833.972 630.956 837.946 627.226 839.102ZM589.09 810.837C587.432 811.35 586.502 813.117 587.016 814.774L595.322 841.577C595.836 843.234 597.602 844.165 599.259 843.651L626.062 835.345C627.719 834.831 628.65 833.065 628.136 831.407L619.83 804.605C619.316 802.947 617.55 802.017 615.892 802.53L589.09 810.837Z" fill="#1F1F1F"/>
<path d="M582.134 853.076L555.332 861.382C551.603 862.538 547.629 860.444 546.473 856.715L538.166 829.913C537.011 826.183 539.104 822.209 542.833 821.053L569.636 812.747C573.365 811.591 577.34 813.685 578.495 817.414L586.802 844.217C587.957 847.946 585.864 851.92 582.134 853.076ZM543.998 824.811C542.34 825.324 541.41 827.091 541.924 828.748L550.23 855.551C550.744 857.208 552.51 858.139 554.167 857.625L580.97 849.319C582.627 848.805 583.558 847.039 583.044 845.381L574.738 818.579C574.224 816.921 572.458 815.991 570.8 816.504L543.998 824.811Z" fill="#1F1F1F"/>
<path d="M537.049 867.049L510.246 875.355C506.517 876.511 502.543 874.418 501.387 870.688L493.08 843.886C491.925 840.156 494.018 836.182 497.748 835.026L524.55 826.72C528.28 825.564 532.254 827.658 533.41 831.387L541.716 858.19C542.872 861.919 540.778 865.893 537.049 867.049ZM498.912 838.784C497.255 839.297 496.324 841.064 496.838 842.721L505.144 869.524C505.658 871.181 507.424 872.112 509.082 871.598L535.884 863.292C537.542 862.778 538.472 861.012 537.959 859.354L529.652 832.552C529.139 830.894 527.372 829.964 525.715 830.477L498.912 838.784Z" fill="#1F1F1F"/>
<path d="M491.957 881.024L465.154 889.33C461.425 890.486 457.451 888.392 456.295 884.663L447.989 857.861C446.833 854.131 448.927 850.157 452.656 849.001L479.458 840.695C483.188 839.539 487.162 841.633 488.318 845.362L496.624 872.165C497.78 875.894 495.686 879.868 491.957 881.024ZM453.82 852.759C452.163 853.272 451.232 855.039 451.746 856.696L460.052 883.499C460.566 885.156 462.332 886.087 463.99 885.573L490.792 877.267C492.45 876.753 493.38 874.987 492.867 873.329L484.56 846.527C484.047 844.869 482.28 843.939 480.623 844.452L453.82 852.759Z" fill="#1F1F1F"/>
<path d="M434.345 898.882L426.454 901.327C425.417 901.648 424.315 901.068 423.993 900.03C423.672 898.993 424.252 897.891 425.29 897.569L433.18 895.124C434.838 894.61 435.768 892.844 435.254 891.187L426.947 864.382C426.434 862.724 424.667 861.794 423.01 862.307L415.119 864.753C414.082 865.074 412.98 864.494 412.658 863.456C412.337 862.419 412.917 861.317 413.955 860.995L421.846 858.55C425.575 857.394 429.549 859.488 430.705 863.217L439.012 890.022C440.168 893.752 438.074 897.726 434.345 898.882Z" fill="#1F1F1F"/>
<path d="M728.565 822.384L691.991 833.719C690.953 834.04 689.851 833.46 689.53 832.422C689.208 831.385 689.789 830.283 690.826 829.961L727.4 818.626C728.438 818.305 729.54 818.885 729.861 819.923C730.183 820.961 729.602 822.062 728.565 822.384Z" fill="#1F1F1F"/>
<path d="M704.947 845.147L703.069 845.729C702.239 845.987 701.357 845.522 701.1 844.692L698.888 837.553C698.63 836.723 699.095 835.842 699.925 835.585L701.803 835.002C702.634 834.745 703.515 835.209 703.772 836.039L705.985 843.178C706.242 844.009 705.777 844.89 704.947 845.147Z" fill="#1F1F1F"/>
<path d="M537.3 944.049C537.09 944.114 536.872 944.165 536.648 944.199L533.423 945.199C530.557 946.087 527.505 944.481 526.618 941.619L524.931 936.174C522.421 928.075 513.909 923.239 505.957 925.393C501.86 926.501 498.466 929.171 496.421 932.891C494.374 936.614 493.939 940.898 495.195 944.951L496.778 950.057C497.263 951.624 497.021 953.307 496.113 954.675C495.21 956.032 493.766 956.906 492.148 957.078L449.498 962.802C446.074 963.257 442.85 961.196 441.829 957.901L412.723 863.984C410.246 855.991 414.733 847.473 422.726 844.996L718.556 753.315C726.275 750.923 734.5 755.254 736.892 762.971L768.979 866.508C769.866 869.37 768.257 872.421 765.392 873.309L719.284 887.598C716.419 888.486 713.366 886.88 712.479 884.018L710.792 878.574C708.281 870.47 699.765 865.635 691.809 867.796C687.699 868.908 684.312 871.58 682.267 875.302C680.224 879.022 679.79 883.302 681.046 887.354L682.857 893.199C683.744 896.061 682.137 899.111 679.275 899.998L577.467 931.549C574.605 932.436 571.555 930.829 570.668 927.967L568.981 922.523C568.785 921.889 568.549 921.27 568.28 920.682C565.103 913.615 557.251 909.777 550.008 911.742C542.139 913.879 537.244 921.787 538.841 929.75C538.945 930.26 539.08 930.785 539.24 931.302L540.822 936.408C541.662 939.118 540.432 942.437 538.133 943.691C538.112 943.703 538.09 943.714 538.069 943.726C537.83 943.856 537.572 943.965 537.3 944.049ZM690.045 864.008C690.27 863.938 690.496 863.872 690.725 863.81C700.804 861.073 711.575 867.148 714.737 877.351L716.424 882.796C716.637 883.483 717.371 883.867 718.062 883.653L764.169 869.364C764.859 869.15 765.247 868.418 765.034 867.731L732.947 764.193C731.23 758.652 725.322 755.542 719.778 757.26L423.948 848.941C418.131 850.744 414.865 856.944 416.668 862.761L445.773 956.678C446.196 958.043 447.533 958.896 448.951 958.708L491.631 952.98C491.655 952.976 491.68 952.974 491.704 952.971C492.245 952.917 492.542 952.584 492.672 952.389C492.8 952.196 492.992 951.795 492.833 951.28L491.25 946.174C489.659 941.04 490.21 935.616 492.801 930.902C495.391 926.189 499.678 922.815 504.876 921.407C514.95 918.678 525.715 924.754 528.875 934.952L530.563 940.396C530.776 941.083 531.51 941.468 532.2 941.254L535.551 940.215C535.577 940.206 535.604 940.198 535.63 940.191L536.246 940C536.76 939.591 537.133 938.454 536.877 937.63L535.295 932.524C535.095 931.877 534.926 931.22 534.793 930.569C532.768 920.477 538.966 910.458 548.926 907.755C558.11 905.264 568.047 910.088 572.041 918.976C572.378 919.712 572.677 920.498 572.926 921.3L574.613 926.744C574.826 927.431 575.558 927.817 576.245 927.604L678.052 896.053C678.739 895.84 679.125 895.108 678.912 894.421L677.101 888.577C675.51 883.445 676.06 878.024 678.647 873.313C681.122 868.808 685.152 865.524 690.045 864.008Z" fill="#1F1F1F"/>
<path d="M765.609 849.341L755.62 852.436C754.219 852.871 753.436 854.358 753.87 855.759L759.231 873.056L765.377 871.152C770.698 869.503 773.675 863.852 772.026 858.531L769.874 851.588C769.317 849.79 767.407 848.784 765.609 849.341Z" fill="#0F4C75"/>
<path d="M765.461 871.421L759.045 873.41L753.6 855.842C753.121 854.294 753.989 852.645 755.537 852.165L765.526 849.07C767.47 848.467 769.543 849.559 770.145 851.504L772.297 858.446C773.99 863.908 770.923 869.729 765.461 871.421ZM759.418 872.701L765.294 870.881C770.457 869.28 773.356 863.777 771.756 858.614L769.605 851.671C769.094 850.025 767.34 849.1 765.693 849.611L755.705 852.706C754.455 853.093 753.754 854.425 754.141 855.674L759.418 872.701Z" fill="#1F1F1F"/>
<g opacity="0.3">
<path d="M762.534 861.956L756.389 863.86L759.573 874.135L765.719 872.23C771.04 870.581 774.017 864.931 772.368 859.609L770.216 852.667C770.082 852.234 769.868 851.849 769.598 851.519C769.969 856.123 767.13 860.532 762.534 861.956Z" fill="#1F1F1F"/>
</g>
<g opacity="0.55">
<path d="M769.873 851.588L771.348 856.344C770.791 854.548 768.881 853.542 767.085 854.099L757.098 857.194C755.693 857.63 754.91 859.116 755.343 860.514L753.869 855.757C753.436 854.359 754.219 852.873 755.624 852.437L765.611 849.342C767.407 848.786 769.317 849.792 769.873 851.588Z" fill="white"/>
</g>
<path d="M765.991 873.123L759.846 875.028C758.756 875.365 757.6 874.756 757.262 873.667L751.901 856.369C751.131 853.883 752.527 851.234 755.013 850.463L765.001 847.368C767.884 846.474 770.957 848.093 771.85 850.976L774.002 857.918C775.985 864.319 772.392 871.14 765.991 873.123ZM760.596 870.472L764.769 869.178C768.994 867.869 771.366 863.366 770.057 859.141L767.905 852.199C767.686 851.491 766.932 851.093 766.224 851.312L756.235 854.408C755.924 854.504 755.75 854.836 755.846 855.147L760.596 870.472Z" fill="#1F1F1F"/>
<path d="M756.631 763.012L760.912 776.826C761.96 780.207 760.066 783.803 756.684 784.851C755.089 785.345 753.391 784.45 752.897 782.855L748.015 767.103L714.639 777.447L713.383 773.394C712.893 771.811 713.775 770.135 715.359 769.644L749.27 759.134C752.376 758.172 755.668 759.907 756.631 763.012Z" fill="#0F4C75"/>
<path d="M756.769 785.121C755.025 785.661 753.168 784.682 752.627 782.939L747.829 767.457L714.453 777.801L713.114 773.478C712.578 771.751 713.548 769.909 715.276 769.374L749.187 758.864C752.435 757.858 755.896 759.681 756.902 762.928L761.183 776.742C762.276 780.269 760.296 784.028 756.769 785.121ZM714.827 777.092L748.203 766.749L753.168 782.772C753.616 784.217 755.156 785.028 756.601 784.58C759.83 783.58 761.643 780.138 760.643 776.91L756.362 763.096C755.448 760.147 752.305 758.491 749.355 759.405L715.444 769.914C714.014 770.357 713.212 771.881 713.655 773.311L714.827 777.092Z" fill="#1F1F1F"/>
<g opacity="0.55">
<path d="M756.637 763.011L757.568 766.015C756.605 762.909 753.313 761.175 750.207 762.137L716.296 772.647C714.712 773.137 713.829 774.813 714.32 776.397L713.389 773.393C712.898 771.809 713.781 770.133 715.365 769.643L749.276 759.133C752.382 758.171 755.674 759.905 756.637 763.011Z" fill="white"/>
</g>
<g opacity="0.3">
<path d="M758.625 769.435L760.915 776.824C761.963 780.206 760.069 783.801 756.687 784.849C755.092 785.343 753.394 784.449 752.9 782.854L750.61 775.465C751.104 777.06 752.802 777.955 754.397 777.46C757.779 776.412 759.673 772.817 758.625 769.435Z" fill="#1F1F1F"/>
</g>
<path d="M757.272 786.726C754.643 787.541 751.839 786.065 751.024 783.435L746.725 769.561L715.227 779.322C714.19 779.644 713.088 779.063 712.766 778.026L711.511 773.974C710.7 771.359 712.168 768.572 714.783 767.762L748.694 757.253C752.829 755.971 757.234 758.293 758.516 762.427L762.797 776.241C764.165 780.654 761.687 785.358 757.272 786.726ZM715.942 774.982L747.439 765.221C748.476 764.9 749.578 765.48 749.9 766.518L754.782 782.27C754.955 782.829 755.55 783.142 756.108 782.969C758.45 782.243 759.765 779.747 759.039 777.405L754.758 763.591C754.119 761.529 751.921 760.371 749.859 761.01L715.947 771.52C715.405 771.688 715.1 772.266 715.268 772.809L715.942 774.982Z" fill="#1F1F1F"/>
<path d="M712.46 879.195C716.35 887.773 712.547 897.885 703.969 901.774C695.386 905.666 685.279 901.862 681.389 893.283C680.46 891.233 679.971 889.098 679.88 886.983L679.879 886.979C679.586 880.228 683.348 873.666 689.881 870.704C697.417 867.287 706.136 869.802 710.779 876.284C711.423 877.18 711.987 878.153 712.46 879.195Z" fill="#7C6B6A"/>
<path d="M702.569 904.512C693.504 907.321 683.523 903.001 679.504 894.138C675.15 884.535 679.42 873.18 689.023 868.825C698.631 864.471 709.982 868.741 714.336 878.344C718.69 887.947 714.42 899.303 704.817 903.657C704.077 903.993 703.326 904.277 702.569 904.512ZM692.51 871.909C691.907 872.096 691.313 872.322 690.729 872.587C683.2 876.001 679.852 884.903 683.266 892.432C686.68 899.962 695.584 903.311 703.111 899.896C706.759 898.242 709.544 895.267 710.953 891.518C712.363 887.77 712.228 883.697 710.574 880.05C708.921 876.402 705.946 873.618 702.197 872.208C699.049 871.024 695.672 870.929 692.51 871.909Z" fill="#1F1F1F"/>
<path d="M705.566 884.213C704.439 879.432 699.649 876.471 694.869 877.598C690.088 878.725 687.127 883.514 688.254 888.295C689.381 893.075 694.17 896.037 698.951 894.91C703.731 893.782 706.693 888.993 705.566 884.213Z" fill="#D3DAE2"/>
<path d="M699.622 895.012C695.272 896.36 690.482 894.287 688.554 890.034C687.542 887.802 687.459 885.309 688.322 883.014C689.185 880.72 690.889 878.899 693.122 877.887C695.355 876.875 697.847 876.792 700.141 877.655C702.436 878.518 704.256 880.222 705.269 882.455C707.358 887.063 705.309 892.512 700.701 894.602C700.346 894.763 699.985 894.9 699.622 895.012ZM694.379 878.013C694.032 878.12 693.691 878.25 693.356 878.402C691.261 879.352 689.662 881.061 688.852 883.213C688.042 885.366 688.12 887.705 689.069 889.8C691.03 894.124 696.148 896.045 700.467 894.086C704.791 892.125 706.714 887.013 704.753 882.689C703.803 880.594 702.095 878.994 699.942 878.185C698.134 877.505 696.194 877.45 694.379 878.013Z" fill="#1F1F1F"/>
<g opacity="0.3">
<path d="M705.036 882.606C702.507 880.564 698.94 879.99 695.776 881.428C691.311 883.455 689.328 888.706 691.334 893.167C690.288 892.32 689.415 891.223 688.823 889.913C686.793 885.439 688.774 880.169 693.249 878.139C697.724 876.113 702.994 878.095 705.018 882.566C705.022 882.58 705.031 882.592 705.036 882.606Z" fill="#1F1F1F"/>
</g>
<path d="M699.248 887.099C699.729 885.819 699.082 884.392 697.802 883.911C696.523 883.43 695.096 884.077 694.615 885.357C694.134 886.636 694.781 888.063 696.06 888.544C697.34 889.025 698.767 888.378 699.248 887.099Z" fill="#1F1F1F"/>
<path d="M696.464 881.872C696.67 881.323 696.393 880.711 695.844 880.505C695.295 880.298 694.683 880.576 694.477 881.124C694.271 881.673 694.548 882.285 695.097 882.491C695.646 882.698 696.258 882.42 696.464 881.872Z" fill="#1F1F1F"/>
<path d="M699.396 891.328C699.602 890.779 699.324 890.167 698.776 889.961C698.227 889.754 697.615 890.032 697.409 890.581C697.202 891.129 697.48 891.741 698.029 891.948C698.577 892.154 699.189 891.876 699.396 891.328Z" fill="#1F1F1F"/>
<path d="M692.2 884.089C692.783 884.146 693.209 884.666 693.152 885.249C693.095 885.832 692.575 886.259 691.992 886.201C691.409 886.144 690.982 885.625 691.04 885.041C691.097 884.458 691.616 884.032 692.2 884.089Z" fill="#1F1F1F"/>
<path d="M701.848 886.28C702.431 886.338 702.858 886.857 702.8 887.44C702.743 888.024 702.224 888.45 701.64 888.393C701.057 888.335 700.631 887.816 700.688 887.233C700.745 886.649 701.265 886.223 701.848 886.28Z" fill="#1F1F1F"/>
<path d="M692.697 889.254C693.039 888.778 693.702 888.668 694.178 889.009C694.655 889.351 694.764 890.014 694.423 890.49C694.082 890.967 693.419 891.076 692.943 890.735C692.466 890.394 692.356 889.731 692.697 889.254Z" fill="#1F1F1F"/>
<path d="M699.416 881.992C699.758 881.515 700.421 881.406 700.897 881.747C701.373 882.088 701.483 882.751 701.142 883.228C700.801 883.704 700.138 883.814 699.661 883.472C699.185 883.131 699.075 882.468 699.416 881.992Z" fill="#1F1F1F"/>
<g opacity="0.55">
<path d="M701.439 897.055C696.962 899.082 691.692 897.1 689.666 892.628C689.305 891.829 689.068 891.01 688.957 890.186C691.068 894.467 696.213 896.326 700.598 894.34C704.274 892.67 706.271 888.81 705.732 885.005C705.777 885.095 705.824 885.19 705.865 885.281C707.893 889.758 705.911 895.028 701.439 897.055Z" fill="white"/>
</g>
<path d="M699.967 896.101C695.076 897.617 689.69 895.285 687.521 890.503C686.383 887.992 686.29 885.189 687.261 882.609C688.231 880.029 690.148 877.981 692.658 876.843C695.167 875.704 697.971 875.612 700.552 876.582C703.131 877.553 705.179 879.469 706.317 881.979C707.456 884.49 707.548 887.293 706.578 889.873C705.608 892.453 703.691 894.501 701.181 895.639C700.781 895.82 700.376 895.974 699.967 896.101ZM694.723 879.102C694.422 879.195 694.126 879.308 693.835 879.44C692.019 880.263 690.631 881.745 689.929 883.612C689.227 885.48 689.294 887.509 690.118 889.325C691.818 893.075 696.256 894.744 700.003 893.042C703.753 891.342 705.421 886.907 703.72 883.157C702.897 881.34 701.415 879.953 699.548 879.251C697.98 878.661 696.297 878.614 694.723 879.102Z" fill="#1F1F1F"/>
<g opacity="0.3">
<path d="M710.777 876.286C707.157 874.761 704.406 876.731 703.354 879.922C700.163 872.886 684.859 879.825 688.05 886.861C685.673 884.668 682.403 884.675 679.878 886.985L679.877 886.981C679.584 880.23 683.346 873.668 689.879 870.706C697.415 867.288 706.134 869.803 710.777 876.286Z" fill="#1F1F1F"/>
</g>
<path d="M570.347 923.239C574.236 931.817 570.434 941.929 561.856 945.818C553.273 949.71 543.166 945.906 539.276 937.327C538.347 935.277 537.858 933.142 537.767 931.027L537.765 931.023C537.472 924.272 541.235 917.71 547.767 914.748C555.304 911.331 564.022 913.846 568.666 920.328C569.31 921.224 569.874 922.197 570.347 923.239Z" fill="#7C6B6A"/>
<path d="M560.451 948.556C551.387 951.365 541.406 947.045 537.387 938.182C533.033 928.579 537.303 917.223 546.906 912.869C556.514 908.515 567.865 912.785 572.219 922.388C576.573 931.991 572.303 943.346 562.7 947.701C561.96 948.037 561.209 948.321 560.451 948.556ZM550.393 915.953C549.79 916.14 549.196 916.366 548.612 916.63C541.083 920.044 537.735 928.947 541.149 936.476C544.563 944.005 553.469 947.354 560.994 943.939C564.642 942.285 567.427 939.311 568.836 935.562C570.246 931.814 570.111 927.741 568.458 924.094C566.804 920.446 563.829 917.661 560.08 916.252C556.932 915.068 553.555 914.973 550.393 915.953Z" fill="#1F1F1F"/>
<path d="M563.451 928.252C562.323 923.471 557.534 920.51 552.754 921.637C547.973 922.764 545.011 927.553 546.139 932.334C547.266 937.114 552.055 940.076 556.836 938.949C561.616 937.821 564.578 933.032 563.451 928.252Z" fill="#D3DAE2"/>
<path d="M557.51 939.053C553.16 940.401 548.37 938.328 546.442 934.075C544.352 929.466 546.401 924.017 551.01 921.927C553.244 920.915 555.735 920.833 558.029 921.696C560.324 922.558 562.145 924.263 563.157 926.495C565.246 931.104 563.197 936.553 558.589 938.643C558.234 938.804 557.873 938.94 557.51 939.053ZM552.256 922.058C551.915 922.164 551.577 922.292 551.243 922.443C546.919 924.404 544.997 929.517 546.957 933.841C548.918 938.165 554.035 940.088 558.355 938.127C562.679 936.166 564.602 931.053 562.641 926.729C560.832 922.739 556.337 920.793 552.256 922.058Z" fill="#1F1F1F"/>
<g opacity="0.3">
<path d="M562.922 926.649C560.394 924.607 556.827 924.033 553.663 925.471C549.198 927.498 547.215 932.748 549.221 937.21C548.174 936.363 547.301 935.266 546.709 933.956C544.679 929.482 546.661 924.212 551.135 922.182C555.611 920.156 560.881 922.138 562.905 926.609C562.909 926.623 562.918 926.635 562.922 926.649Z" fill="#1F1F1F"/>
</g>
<path d="M557.131 931.148C557.612 929.869 556.964 928.442 555.685 927.961C554.406 927.48 552.979 928.127 552.498 929.406C552.017 930.686 552.664 932.113 553.943 932.594C555.222 933.075 556.649 932.428 557.131 931.148Z" fill="#1F1F1F"/>
<path d="M554.3 925.12C554.542 925.654 554.306 926.283 553.772 926.525C553.238 926.767 552.609 926.53 552.367 925.996C552.125 925.462 552.362 924.834 552.896 924.591C553.429 924.349 554.058 924.586 554.3 925.12Z" fill="#1F1F1F"/>
<path d="M557.232 934.575C557.474 935.109 557.237 935.738 556.704 935.98C556.17 936.222 555.541 935.986 555.299 935.452C555.057 934.918 555.293 934.289 555.827 934.047C556.361 933.805 556.99 934.042 557.232 934.575Z" fill="#1F1F1F"/>
<path d="M550.075 928.136C550.658 928.193 551.084 928.712 551.027 929.295C550.97 929.879 550.45 930.305 549.867 930.248C549.284 930.191 548.857 929.671 548.915 929.088C548.972 928.505 549.491 928.078 550.075 928.136Z" fill="#1F1F1F"/>
<path d="M559.723 930.327C560.306 930.384 560.733 930.903 560.675 931.487C560.618 932.07 560.099 932.496 559.515 932.439C558.932 932.382 558.506 931.862 558.563 931.279C558.62 930.696 559.14 930.269 559.723 930.327Z" fill="#1F1F1F"/>
<path d="M550.584 933.298C550.925 932.822 551.588 932.712 552.065 933.053C552.541 933.395 552.651 934.058 552.31 934.534C551.969 935.01 551.306 935.12 550.829 934.779C550.353 934.438 550.243 933.775 550.584 933.298Z" fill="#1F1F1F"/>
<path d="M557.299 926.036C557.64 925.559 558.303 925.45 558.78 925.791C559.256 926.132 559.366 926.795 559.025 927.272C558.683 927.748 558.02 927.858 557.544 927.516C557.067 927.175 556.958 926.512 557.299 926.036Z" fill="#1F1F1F"/>
<g opacity="0.55">
<path d="M559.323 941.098C554.847 943.125 549.577 941.143 547.55 936.671C547.19 935.872 546.953 935.053 546.842 934.229C548.952 938.51 554.098 940.369 558.482 938.383C562.159 936.713 564.156 932.853 563.617 929.048C563.662 929.138 563.709 929.233 563.75 929.324C565.778 933.801 563.796 939.071 559.323 941.098Z" fill="white"/>
</g>
<path d="M557.849 940.144C552.958 941.66 547.572 939.329 545.403 934.547C543.053 929.364 545.358 923.237 550.54 920.887C553.052 919.75 555.854 919.656 558.433 920.626C561.013 921.596 563.061 923.513 564.199 926.023C566.549 931.206 564.244 937.333 559.063 939.683C558.663 939.864 558.258 940.018 557.849 940.144ZM552.595 923.15C552.299 923.242 552.006 923.353 551.717 923.484C547.967 925.184 546.299 929.619 548 933.369C549.7 937.119 554.134 938.791 557.885 937.086C561.635 935.386 563.303 930.951 561.602 927.201C560.033 923.74 556.135 922.053 552.595 923.15Z" fill="#1F1F1F"/>
<g opacity="0.3">
<path d="M568.645 920.334C565.024 918.809 562.273 920.78 561.221 923.97C558.03 916.934 542.726 923.873 545.917 930.91C543.54 928.716 540.271 928.723 537.746 931.033L537.744 931.029C537.451 924.278 541.214 917.716 547.746 914.754C555.283 911.337 564.001 913.852 568.645 920.334Z" fill="#1F1F1F"/>
</g>
<path d="M513.831 805.973L456.418 823.766C452.926 824.848 450.973 828.556 452.055 832.048L453.757 837.539L523.815 815.828L522.113 810.337C521.031 806.845 517.323 804.891 513.831 805.973Z" fill="#252A61"/>
<g opacity="0.55">
<path d="M522.114 810.337L523.329 814.258C522.247 810.765 518.542 808.813 515.049 809.896L457.634 827.689C454.146 828.77 452.189 832.476 453.272 835.97L452.057 832.049C450.974 828.556 452.931 824.849 456.419 823.768L513.833 805.975C517.327 804.892 521.032 806.844 522.114 810.337Z" fill="white"/>
</g>
<path d="M524.43 817.8L454.372 839.511C453.282 839.849 452.126 839.24 451.788 838.15L450.086 832.659C448.669 828.085 451.237 823.211 455.811 821.793L513.223 804.001C517.797 802.583 522.672 805.151 524.089 809.725L525.791 815.216C526.128 816.305 525.519 817.462 524.43 817.8ZM455.122 834.955L521.235 814.466L520.144 810.948C519.401 808.549 516.844 807.202 514.446 807.945L457.033 825.738C454.635 826.482 453.288 829.038 454.031 831.437L455.122 834.955Z" fill="#1F1F1F"/>
<path d="M668.29 758.105L610.877 775.898C607.386 776.98 605.432 780.688 606.514 784.18L608.216 789.671L678.274 767.96L676.572 762.469C675.49 758.977 671.782 757.023 668.29 758.105Z" fill="#252A61"/>
<g opacity="0.55">
<path d="M676.571 762.469L677.786 766.39C676.704 762.896 672.999 760.945 669.506 762.027L612.091 779.821C608.603 780.902 606.646 784.608 607.729 788.101L606.514 784.181C605.431 780.687 607.388 776.981 610.876 775.9L668.291 758.107C671.784 757.024 675.489 758.976 676.571 762.469Z" fill="white"/>
</g>
<path d="M678.881 769.933L608.823 791.645C607.734 791.983 606.577 791.373 606.239 790.284L604.538 784.793C603.12 780.219 605.688 775.345 610.262 773.927L667.674 756.134C672.248 754.717 677.123 757.285 678.54 761.859L680.242 767.35C680.579 768.439 679.97 769.596 678.881 769.933ZM609.573 787.089L675.686 766.6L674.595 763.081C673.852 760.683 671.295 759.336 668.897 760.079L611.485 777.872C609.086 778.615 607.739 781.172 608.483 783.57L609.573 787.089Z" fill="#1F1F1F"/>
<g opacity="0.3">
<path d="M683.512 789.132C683.105 787.818 683.308 786.453 683.968 785.367C684.529 784.411 685.44 783.659 686.582 783.305L714.259 774.728C714.299 774.716 714.338 774.709 714.378 774.698C713.571 772.314 711.01 770.993 708.592 771.742L680.916 780.32C679.773 780.674 678.862 781.426 678.301 782.382C677.641 783.468 677.438 784.832 677.845 786.147L691.954 831.671L696.28 830.331L683.512 789.132Z" fill="#1F1F1F"/>
</g>
<path d="M527.071 936.65C530.961 945.229 527.159 955.34 518.58 959.23C509.998 963.121 499.891 959.317 496.001 950.739C495.071 948.689 494.583 946.553 494.492 944.438L494.49 944.434C494.197 937.683 497.959 931.121 504.492 928.159C512.028 924.742 520.747 927.257 525.39 933.74C526.034 934.635 526.599 935.608 527.071 936.65Z" fill="#7C6B6A"/>
<path d="M517.194 961.962C508.13 964.771 498.148 960.45 494.13 951.588C489.775 941.984 494.045 930.629 503.648 926.274C508.302 924.166 513.495 923.993 518.276 925.791C523.057 927.589 526.852 931.141 528.962 935.793C531.071 940.446 531.243 945.641 529.445 950.421C527.647 955.203 524.095 958.997 519.443 961.107C518.702 961.442 517.951 961.727 517.194 961.962ZM507.136 929.359C506.533 929.545 505.938 929.771 505.354 930.036C497.825 933.45 494.477 942.353 497.891 949.882C501.306 957.411 510.212 960.76 517.737 957.345C521.384 955.691 524.169 952.716 525.579 948.968C526.988 945.219 526.854 941.146 525.2 937.499C523.546 933.852 520.571 931.067 516.823 929.657C513.675 928.474 510.297 928.379 507.136 929.359Z" fill="#1F1F1F"/>
<path d="M519.407 947.836C521.697 943.49 520.03 938.111 515.684 935.822C511.339 933.533 505.96 935.2 503.671 939.545C501.381 943.891 503.048 949.269 507.394 951.559C511.739 953.848 517.118 952.181 519.407 947.836Z" fill="#D3DAE2"/>
<path d="M514.253 952.458C509.903 953.806 505.113 951.733 503.185 947.48C502.172 945.248 502.09 942.755 502.953 940.46C503.816 938.166 505.52 936.345 507.753 935.333C509.987 934.32 512.478 934.239 514.772 935.101C517.067 935.964 518.887 937.669 519.9 939.901C520.912 942.133 520.994 944.626 520.131 946.92C519.269 949.215 517.564 951.036 515.332 952.048C514.976 952.209 514.616 952.346 514.253 952.458ZM508.999 935.464C508.658 935.569 508.32 935.697 507.986 935.849C505.892 936.799 504.292 938.507 503.483 940.66C502.673 942.813 502.75 945.152 503.7 947.246C505.661 951.571 510.781 953.49 515.098 951.533C517.193 950.583 518.792 948.874 519.602 946.721C520.411 944.569 520.334 942.23 519.384 940.135C517.575 936.144 513.08 934.199 508.999 935.464Z" fill="#1F1F1F"/>
<g opacity="0.3">
<path d="M519.661 940.055C517.132 938.013 513.565 937.439 510.401 938.877C505.936 940.904 503.953 946.155 505.959 950.616C504.913 949.769 504.04 948.672 503.448 947.362C501.418 942.888 503.399 937.618 507.874 935.588C512.349 933.562 517.619 935.544 519.643 940.015C519.647 940.029 519.656 940.041 519.661 940.055Z" fill="#1F1F1F"/>
</g>
<path d="M513.871 944.557C514.352 943.278 513.705 941.851 512.425 941.37C511.146 940.889 509.719 941.536 509.238 942.815C508.757 944.094 509.404 945.521 510.683 946.002C511.963 946.483 513.39 945.836 513.871 944.557Z" fill="#1F1F1F"/>
<path d="M511.085 939.33C511.291 938.781 511.014 938.169 510.465 937.963C509.917 937.757 509.304 938.034 509.098 938.583C508.892 939.131 509.169 939.743 509.718 939.95C510.267 940.156 510.879 939.879 511.085 939.33Z" fill="#1F1F1F"/>
<path d="M514.017 948.785C514.223 948.237 513.945 947.625 513.397 947.418C512.848 947.212 512.236 947.49 512.03 948.038C511.824 948.587 512.101 949.199 512.65 949.405C513.198 949.612 513.81 949.334 514.017 948.785Z" fill="#1F1F1F"/>
<path d="M506.817 941.541C507.4 941.599 507.826 942.118 507.769 942.701C507.712 943.285 507.193 943.711 506.609 943.654C506.026 943.596 505.599 943.077 505.657 942.494C505.714 941.91 506.233 941.484 506.817 941.541Z" fill="#1F1F1F"/>
<path d="M516.473 943.731C517.056 943.788 517.483 944.307 517.425 944.891C517.368 945.474 516.849 945.9 516.265 945.843C515.682 945.786 515.256 945.266 515.313 944.683C515.37 944.1 515.89 943.673 516.473 943.731Z" fill="#1F1F1F"/>
<path d="M507.315 946.707C507.656 946.231 508.319 946.121 508.795 946.463C509.272 946.804 509.381 947.467 509.04 947.943C508.699 948.42 508.036 948.529 507.56 948.188C507.083 947.847 506.973 947.184 507.315 946.707Z" fill="#1F1F1F"/>
<path d="M514.041 939.441C514.383 938.964 515.046 938.855 515.522 939.196C515.999 939.537 516.108 940.2 515.767 940.677C515.426 941.153 514.763 941.263 514.286 940.921C513.81 940.58 513.7 939.917 514.041 939.441Z" fill="#1F1F1F"/>
<g opacity="0.55">
<path d="M516.064 954.504C511.587 956.532 506.317 954.55 504.291 950.078C503.93 949.279 503.693 948.459 503.582 947.636C505.693 951.917 510.838 953.776 515.223 951.79C518.899 950.119 520.896 946.26 520.357 942.455C520.402 942.545 520.449 942.639 520.49 942.731C522.518 947.208 520.536 952.478 516.064 954.504Z" fill="white"/>
</g>
<path d="M514.592 953.55C509.701 955.066 504.315 952.734 502.146 947.952C501.008 945.442 500.915 942.638 501.886 940.058C502.856 937.478 504.773 935.43 507.283 934.292C509.793 933.154 512.597 933.061 515.177 934.032C517.757 935.002 519.804 936.919 520.943 939.429C523.292 944.611 520.988 950.739 515.806 953.089C515.406 953.27 515.001 953.423 514.592 953.55ZM509.348 936.552C509.048 936.645 508.751 936.757 508.461 936.889C506.644 937.713 505.256 939.195 504.554 941.062C503.852 942.929 503.919 944.958 504.743 946.774C506.444 950.525 510.879 952.194 514.628 950.492C518.379 948.791 520.046 944.357 518.346 940.607C517.522 938.79 516.04 937.402 514.173 936.7C512.605 936.111 510.923 936.064 509.348 936.552Z" fill="#1F1F1F"/>
<g opacity="0.3">
<path d="M525.397 933.738C521.776 932.213 519.025 934.183 517.973 937.373C514.782 930.337 499.478 937.276 502.669 944.313C500.292 942.12 497.023 942.127 494.498 944.436L494.496 944.433C494.203 937.681 497.966 931.119 504.498 928.157C512.034 924.74 520.753 927.255 525.397 933.738Z" fill="#1F1F1F"/>
</g>
<path d="M784.163 877.758C777.646 880.852 770.898 883.201 764.115 885.435C757.336 887.684 750.493 889.726 743.65 891.766L733.401 894.877L723.169 898.044L702.707 904.386L620.859 929.751L539.011 955.117L498.087 967.799L487.858 970.974L482.756 972.604L477.665 974.268C474.267 975.366 470.837 976.36 467.378 977.258C463.904 978.11 460.404 978.879 456.772 979.22C456.401 979.255 456.072 978.983 456.037 978.612C456.012 978.337 456.155 978.085 456.381 977.959C459.57 976.186 462.891 974.842 466.238 973.58C469.599 972.364 472.99 971.244 476.413 970.228L481.553 968.721L486.682 967.181L496.914 964.014L537.838 951.331L619.686 925.966L701.534 900.6L721.996 894.259L732.225 891.085L742.438 887.855C749.236 885.667 756.034 883.481 762.897 881.503C769.755 879.51 776.648 877.63 783.773 876.497C784.136 876.439 784.479 876.687 784.536 877.051C784.584 877.35 784.424 877.635 784.163 877.758Z" fill="#1F1F1F"/>
</g>
<path d="M1578.43 1257.75C1245.57 1529.06 1787.07 1740.51 2272.46 1635.81L1954.45 123.286C1628.02 187.042 961.38 187.825 1345.67 401.627C1729.96 615.428 1994.51 918.622 1578.43 1257.75Z" fill="#BBE1FA"/>
<path d="M1574.31 1103H788.999C810.084 1077.52 829.673 1052.71 847.574 1028.5C880.834 983.496 908.244 940.539 928.717 899.491C947.698 861.409 960.748 824.765 967.517 789.973C979.853 726.428 970.257 667.245 948.31 615.748C927.69 567.421 897.223 524.833 869.02 485.482C819.889 416.922 784.736 353.672 810.503 304.569C837.223 253.848 910.318 215.791 980.124 178.802C1043.25 145.353 1098.42 116.559 1104.26 86.7619C1108.93 62.5638 1071.84 41.1137 1036.55 23.0401C1004.24 6.49866 976.62 -11.3367 984.35 -26.0872C994.032 -44.4402 1032.4 -57.0178 1070.7 -71.2055C1131.65 -74.1138 1193.18 -77.0425 1255.31 -80C1222.23 -65.9231 1187.92 -52.0475 1186.97 -35.083C1186.1 -18.139 1224.23 -2.73121 1266.79 13.7486C1313.36 31.7771 1362.54 50.2943 1370.81 77.3883C1378.95 104.347 1335.88 136.423 1285.95 170.159C1230.61 207.551 1171.79 248.981 1169.11 297.895C1167.74 323.649 1182.32 352.066 1207.33 380.29C1236.39 413.052 1278.03 446.39 1324.34 483.584C1375.03 524.295 1429.62 568.058 1477.73 618.997C1527.89 672.15 1569.87 733.411 1590.81 802.345C1601.86 838.772 1607.37 877.815 1607.02 918.863C1606.63 962.359 1599.72 1008.61 1587.3 1057.35C1583.49 1072.29 1579.11 1087.53 1574.31 1103Z" fill="#1A1A1A"/>
<path d="M1522.9 1054.84C1518.23 1070.59 1512.91 1086.67 1507.12 1103H1487.65C1493.75 1086.42 1499.35 1070.1 1504.29 1054.11C1519.18 1005.81 1528.51 959.927 1531.24 916.698C1533.79 875.991 1530.44 837.211 1521.44 800.965C1504.43 732.627 1466.11 671.571 1419.17 618.631C1374.21 567.96 1322.35 524.345 1274.22 483.786C1230.23 446.719 1190.63 413.451 1163.53 380.815C1140.14 352.617 1127.2 324.192 1129.89 298.613C1135.14 249.412 1195.68 208.438 1252.63 171.092C1304.03 137.389 1348.6 105.698 1341.85 78.3988C1335.15 51.5841 1287.16 32.7835 1241.84 14.7509C1200.41 -1.73301 1163.32 -17.4283 1165.06 -34.1135C1166.91 -51.2835 1201.71 -64.9619 1235.37 -79.0552C1236.86 -79.125 1238.36 -79.199 1239.86 -79.2688C1206.33 -65.1837 1171.63 -51.456 1169.99 -34.3353C1168.45 -17.5885 1205.78 -1.95893 1247.46 14.5209C1293.06 32.5535 1341.32 51.2925 1348.37 78.1688C1355.43 105.39 1311.19 137.171 1260.13 170.878C1203.54 208.237 1143.38 249.309 1138.71 298.449C1136.32 324.064 1149.63 352.489 1173.38 380.692C1200.92 413.356 1240.97 446.64 1285.49 483.737C1334.2 524.328 1386.66 567.976 1432.33 618.709C1479.99 671.698 1519.14 732.799 1537.02 801.269C1546.48 837.552 1550.31 876.394 1548.25 917.179C1546.04 960.469 1537.24 1006.43 1522.9 1054.84Z" fill="#BBE1FA"/>
<path d="M1016.14 177.783C948.004 214.818 876.457 253.171 852.575 303.785C829.268 353.393 868.595 416.503 922.097 485.261C952.839 524.768 986.041 567.475 1009.73 616.126C1034.86 667.784 1048.12 727.246 1039.38 791.403C1034.6 826.384 1023.58 863.311 1006.62 901.718C988.361 943.057 963.173 986.388 932.165 1031.8C916.35 1054.95 898.979 1078.68 880.314 1103H862.002C881.14 1078.44 898.946 1054.5 915.171 1031.13C946.632 985.805 972.272 942.548 990.982 901.266C1008.35 862.925 1019.77 826.055 1024.96 791.111C1034.42 727.077 1021.9 667.673 997.415 616.048C974.342 567.463 941.695 524.776 911.462 485.302C858.839 416.585 820.351 353.446 844.155 303.941C868.603 253.306 940.466 215.015 1008.94 177.989C1070.85 144.511 1125.02 115.454 1129.45 85.8749C1133.04 61.3934 1094.7 40.2267 1058.36 22.1572C1025.1 5.61988 996.417 -12.0142 1003.58 -26.9455C1012.42 -45.2163 1050.44 -57.8678 1088.24 -72.0473C1089.71 -72.1172 1091.17 -72.187 1092.63 -72.2568C1054.95 -58.0814 1017.02 -45.4093 1008.39 -27.1591C1001.37 -12.1826 1030.32 5.40218 1063.82 21.9354C1100.43 40.0008 1139.07 61.0976 1135.76 85.649C1131.67 115.175 1077.74 144.298 1016.14 177.783Z" fill="#BBE1FA"/>
<path d="M1105.43 -51.4761C1096.02 -46.2553 1088.34 -40.7428 1084.48 -34.7744C1086.09 -34.8443 1087.69 -34.9182 1089.3 -34.988C1093.1 -40.9523 1100.73 -46.4689 1110.08 -51.6897C1108.53 -51.6199 1106.98 -51.55 1105.43 -51.4761ZM1085.13 -17.7524C1089.55 -11.5868 1097.96 -5.83612 1108.28 -0.192226C1110.03 -0.266163 1111.79 -0.340103 1113.54 -0.414043C1103.14 -6.05383 1094.66 -11.8004 1090.15 -17.9701C1088.48 -17.9003 1086.81 -17.8263 1085.13 -17.7524ZM1147.69 18.4647C1162.49 25.0287 1177.44 31.6296 1191.2 39.0234C1193.15 38.9495 1195.09 38.8714 1197.04 38.7975C1183.17 31.4037 1168.12 24.8069 1153.23 18.2387C1151.38 18.3168 1149.54 18.3907 1147.69 18.4647ZM1223.81 62.3671C1231.01 70.4304 1234.4 79.9766 1232.31 89.2639C1234.47 89.19 1236.64 89.1161 1238.8 89.038C1240.79 79.7465 1237.27 70.2004 1229.97 62.1412C1227.92 62.2192 1225.86 62.2932 1223.81 62.3671ZM1210 120.207C1196.67 131.918 1179.25 143.411 1159.68 155.409C1162.08 155.339 1164.46 155.265 1166.85 155.196C1186.3 143.193 1203.61 131.696 1216.82 119.985C1214.55 120.059 1212.27 120.133 1210 120.207ZM1093.58 194.949C1070.84 208.878 1048.88 223.276 1030.03 239.008C1032.68 238.946 1035.33 238.885 1037.99 238.823C1056.68 223.087 1078.51 208.681 1101.12 194.748C1098.61 194.814 1096.09 194.88 1093.58 194.949ZM988.154 288.222C979.671 305.539 977.576 324.734 982.374 343.938C985.41 343.892 988.449 343.843 991.489 343.798C986.465 324.599 988.33 305.387 996.628 288.053C993.802 288.111 990.98 288.168 988.154 288.222ZM1017.81 408.415C1036.94 432.802 1061.31 457.896 1087.52 484.924C1091.17 484.908 1094.82 484.895 1098.46 484.879C1071.9 457.83 1047.19 432.72 1027.73 408.317C1024.42 408.349 1021.12 408.382 1017.81 408.415ZM1171.99 577.781C1200.03 612.676 1225.01 650.774 1241.71 692.43C1246.27 692.483 1250.83 692.536 1255.4 692.594C1238.16 650.877 1212.69 612.746 1184.18 577.822C1180.11 577.806 1176.05 577.794 1171.99 577.781ZM1263.53 835.827C1259.25 891.802 1240.64 952.71 1210.01 1017.64C1215.84 1017.85 1221.67 1018.07 1227.51 1018.28C1257.44 953.232 1275.36 892.217 1278.98 836.181C1273.83 836.066 1268.68 835.946 1263.53 835.827Z" fill="white"/>
</g>
<defs>
<clipPath id="clip0_18_10594">
<rect width="1440" height="1024" fill="white"/>
</clipPath>
</defs>
</svg>
