<svg width="209" height="85" viewBox="0 0 209 85" fill="none" xmlns="http://www.w3.org/2000/svg">
<path d="M20.9121 4.63287C22.4989 1.77364 25.5116 0 28.7816 0H123.287H190.611C198.098 0 202.311 8.60928 197.718 14.5217L176.124 42.316L147.121 81.0281C145.422 83.2966 142.753 84.6319 139.918 84.6319H119.283C114.049 84.6319 110.108 79.8662 111.09 74.7245C112.638 66.628 102.755 61.4321 96.9625 67.2971L82.4485 81.9934C80.7812 83.6817 78.5071 84.6319 76.1343 84.6319H73.5883C68.6482 84.6319 65.2182 79.7119 66.927 75.0767C69.1573 67.298 59.6195 61.6116 53.8371 67.2725L52.8371 68.2515L39.033 82.0071C37.3461 83.6881 35.0617 84.6319 32.6802 84.6319H28.7816C25.5116 84.6319 22.4989 82.8583 20.9121 79.999L2.42353 46.6831C0.916122 43.9668 0.916123 40.6651 2.42353 37.9488L20.9121 4.63287Z" fill="#FFA41B"/>
<rect width="24.5652" height="37.8456" rx="5" transform="matrix(0.78182 0.623505 -0.508191 0.861244 160.132 2.7301)" fill="#F86F03"/>
<ellipse cx="102.151" cy="75.0766" rx="5.87079" ry="6.82515" fill="#F86F03"/>
<ellipse cx="57.5341" cy="75.0766" rx="5.87079" ry="6.82515" fill="#F86F03"/>
<rect x="98.6294" y="13.6504" width="18.7865" height="19.1104" rx="3.5" fill="#F86F03"/>
<rect x="70.4495" y="13.6504" width="18.7865" height="19.1104" rx="3.5" fill="#F86F03"/>
<rect x="42.27" y="13.6504" width="18.7865" height="19.1104" rx="3.5" fill="#F86F03"/>
<path d="M64.815 44.0022H64.315V44.5022V45.8807H64.1086V44.5022V43.663H64.815H66.9659H67.8587V44.5022V53.8585V54.3585H68.3587H69.5286V54.6819H68.3587H66.9659H65.796V54.3585H66.9659H67.4659V53.8585V44.5022V44.0022H66.9659H64.815Z" fill="black" stroke="black"/>
<path d="M81.187 44.4942V43.9942H80.687H76.0115V43.6631H80.687H81.5801V44.4942V48.3364V49.6598V53.8586V54.682H80.687H76.0115V54.3586H80.687H81.187V53.8586V49.6598V49.1598H80.687H76.4253V48.8364H80.687H81.187V48.3364V44.4942Z" fill="black" stroke="black"/>
<path d="M92.6969 44.4942V43.9942H92.1969H87.5178V43.6631H92.1969H93.091V44.4942V48.3364V49.6598V53.8586V54.682H92.1969H87.5178V54.3586H92.1969H92.6969V53.8586V49.6598V49.1598H92.1969H87.9319V48.8364H92.1969H92.6969V48.3364V44.4942Z" fill="black" stroke="black"/>
<path d="M99.4153 43.9942H98.9153V44.4942V46.9204H98.709V44.4942V43.6631H103.786H104.679V44.4942V54.682H104.286V44.4942V43.9942H103.786H99.4153Z" fill="black" stroke="black"/>
</svg>
