<svg width="28" height="28" viewBox="0 0 28 28" fill="none" xmlns="http://www.w3.org/2000/svg">
<path fill-rule="evenodd" clip-rule="evenodd" d="M13.9998 27.3334C6.63584 27.3334 0.666504 21.364 0.666504 14C0.666504 6.63602 6.63584 0.666687 13.9998 0.666687C21.3638 0.666687 27.3332 6.63602 27.3332 14C27.3332 21.364 21.3638 27.3334 13.9998 27.3334ZM13.9998 24.6667C19.8909 24.6667 24.6665 19.8911 24.6665 14C24.6665 8.10898 19.8909 3.33335 13.9998 3.33335C8.1088 3.33335 3.33317 8.10898 3.33317 14C3.33317 19.8911 8.1088 24.6667 13.9998 24.6667ZM20.6665 14H15.3332V7.33335H12.6665V16.6667H20.6665V14Z" fill="#001018"/>
</svg>
