<svg width="1440" height="1024" viewBox="0 0 1440 1024" fill="none" xmlns="http://www.w3.org/2000/svg">
<g clip-path="url(#clip0_2_34)">
<rect width="1440" height="1024" fill="#1B262C"/>
<path d="M494.023 151L473.705 81.1818H492.352L502.886 126.932H503.466L515.5 81.1818H530.705L542.739 127.034H543.318L553.886 81.1818H572.5L552.216 151H535.955L523.375 108.659H522.83L510.25 151H494.023ZM579.472 151V81.1818H628.153V94.8864H596.347V109.205H625.665V122.943H596.347V137.295H628.153V151H579.472ZM638.722 151V81.1818H655.597V137.295H684.642V151H638.722ZM754.034 106.477H736.989C736.761 104.727 736.295 103.148 735.591 101.739C734.886 100.33 733.955 99.125 732.795 98.125C731.636 97.125 730.261 96.3636 728.67 95.8409C727.102 95.2955 725.364 95.0227 723.455 95.0227C720.068 95.0227 717.148 95.8523 714.693 97.5114C712.261 99.1705 710.386 101.568 709.068 104.705C707.773 107.841 707.125 111.636 707.125 116.091C707.125 120.727 707.784 124.614 709.102 127.75C710.443 130.864 712.318 133.216 714.727 134.807C717.159 136.375 720.034 137.159 723.352 137.159C725.216 137.159 726.909 136.92 728.432 136.443C729.977 135.966 731.33 135.273 732.489 134.364C733.67 133.432 734.636 132.307 735.386 130.989C736.159 129.648 736.693 128.136 736.989 126.455L754.034 126.557C753.739 129.648 752.841 132.693 751.341 135.693C749.864 138.693 747.83 141.432 745.239 143.909C742.648 146.364 739.489 148.318 735.761 149.773C732.057 151.227 727.807 151.955 723.011 151.955C716.693 151.955 711.034 150.568 706.034 147.795C701.057 145 697.125 140.932 694.239 135.591C691.352 130.25 689.909 123.75 689.909 116.091C689.909 108.409 691.375 101.898 694.307 96.5568C697.239 91.2159 701.205 87.1591 706.205 84.3864C711.205 81.6136 716.807 80.2273 723.011 80.2273C727.239 80.2273 731.148 80.8182 734.739 82C738.33 83.1591 741.489 84.8636 744.216 87.1136C746.943 89.3409 749.159 92.0795 750.864 95.3295C752.568 98.5795 753.625 102.295 754.034 106.477ZM829.588 116.091C829.588 123.773 828.111 130.284 825.156 135.625C822.202 140.966 818.202 145.023 813.156 147.795C808.134 150.568 802.497 151.955 796.247 151.955C789.974 151.955 784.327 150.557 779.304 147.761C774.281 144.966 770.293 140.909 767.338 135.591C764.406 130.25 762.94 123.75 762.94 116.091C762.94 108.409 764.406 101.898 767.338 96.5568C770.293 91.2159 774.281 87.1591 779.304 84.3864C784.327 81.6136 789.974 80.2273 796.247 80.2273C802.497 80.2273 808.134 81.6136 813.156 84.3864C818.202 87.1591 822.202 91.2159 825.156 96.5568C828.111 101.898 829.588 108.409 829.588 116.091ZM812.338 116.091C812.338 111.545 811.69 107.705 810.395 104.568C809.122 101.432 807.281 99.0568 804.872 97.4432C802.486 95.8295 799.611 95.0227 796.247 95.0227C792.906 95.0227 790.031 95.8295 787.622 97.4432C785.213 99.0568 783.361 101.432 782.065 104.568C780.793 107.705 780.156 111.545 780.156 116.091C780.156 120.636 780.793 124.477 782.065 127.614C783.361 130.75 785.213 133.125 787.622 134.739C790.031 136.352 792.906 137.159 796.247 137.159C799.611 137.159 802.486 136.352 804.872 134.739C807.281 133.125 809.122 130.75 810.395 127.614C811.69 124.477 812.338 120.636 812.338 116.091ZM839.44 81.1818H860.338L878.065 124.409H878.884L896.611 81.1818H917.509V151H901.077V108.114H900.497L883.724 150.557H873.224L856.452 107.875H855.872V151H839.44V81.1818ZM928.034 151V81.1818H976.716V94.8864H944.909V109.205H974.227V122.943H944.909V137.295H976.716V151H928.034Z" fill="#1F1F1F"/>
<path d="M399.607 257.916C110.242 220.353 8.44121 301.029 -6.2886 346.062L-4.98834 359.277L-106.532 -265.564L1270.99 -339.569L1477.77 9.40492C1463.21 85.7095 1374.5 252.16 1136.08 307.527C838.061 376.735 761.314 304.87 399.607 257.916Z" fill="#0F4C75"/>
<path d="M205.448 44.6892C-50.7607 -37.7825 -185.753 27.6342 -221.222 70.6515L-226.304 84.1434L-23.9944 -559.978L1316.47 -421.651L1345.66 -38.7302C1295.41 35.7654 1131.84 189.472 879.506 208.334C564.088 231.911 525.709 147.779 205.448 44.6892Z" fill="#BBE1FA"/>
</g>
<defs>
<clipPath id="clip0_2_34">
<rect width="1440" height="1024" fill="white"/>
</clipPath>
</defs>
</svg>
