<svg width="59" height="58" viewBox="0 0 59 58" fill="none" xmlns="http://www.w3.org/2000/svg">
<path d="M53.5392 0.910191C53.4787 0.90547 53.4275 0.875 53.3643 0.875H27.236C23.2159 0.875 19.9443 4.02971 19.9443 7.90625V10.2499C19.9443 11.5438 21.0329 12.5939 22.3747 12.5939C23.7166 12.5939 24.8052 11.5438 24.8052 10.2499V7.90625C24.8052 6.61493 25.8964 5.56264 27.236 5.56264H38.5598L37.8184 5.80168C35.8499 6.45786 34.5277 8.24614 34.5277 10.2499V45.4061H27.236C25.8964 45.4061 24.8052 44.3538 24.8052 43.0625V38.3749C24.8052 37.0814 23.7166 36.0312 22.3747 36.0312C21.0329 36.0312 19.9443 37.0814 19.9443 38.3749V43.0625C19.9443 46.939 23.2159 50.0938 27.236 50.0938H34.5277V52.4374C34.5277 55.0226 36.7075 57.125 39.3885 57.125C39.9087 57.125 40.4023 57.0525 40.9368 56.8928L55.5397 52.1983C57.5108 51.5421 58.8331 49.7539 58.8331 47.7501V5.56264C58.8331 2.82979 56.3902 0.68746 53.5392 0.910191Z" fill="white"/>
<path d="M26.5237 22.6553L16.8017 13.2805C16.1065 12.6102 15.0615 12.4084 14.1523 12.7719C13.2457 13.135 12.6529 13.9907 12.6529 14.9375V21.9687H2.93041C1.58903 21.9687 0.5 23.0188 0.5 24.3123C0.5 25.6062 1.58903 26.6563 2.93041 26.6563H12.6529V33.6876C12.6529 34.6343 13.2457 35.4896 14.1523 35.8531C15.0615 36.2162 16.1065 36.0149 16.8017 35.3446L26.5237 25.9693C27.4744 25.053 27.4744 23.572 26.5237 22.6553Z" fill="white"/>
</svg>
