<svg width="266" height="77" viewBox="0 0 266 77" fill="none" xmlns="http://www.w3.org/2000/svg">
<path d="M30.2942 8.57978V0L21.4111 0L7.69338 0L0 0L0 8.57978L0 20.6142H7.69338V8.57978H21.4111V68.5216H10.7613V77H21.4111H30.2942H40.944V68.5216H30.2942V8.57978Z" fill="white"/>
<path d="M75.9097 0V8.52758L108.917 8.52758V33.143H78.5488V41.6215H108.917V68.5216H75.9097V77H108.917H117.802V68.5216V41.6215V33.143V8.52758V0L108.917 0L75.9097 0Z" fill="white"/>
<path d="M149.294 0V8.52758L182.324 8.52758V33.143H151.935V41.6215H182.324V68.5216H149.294V77H182.324H191.215V68.5216V41.6215V33.143V8.52758V0L182.324 0L149.294 0Z" fill="white"/>
<path d="M256.233 0L220.667 0V0.0522034V8.52758V27.2747H228.36V8.52758L256.233 8.52758V77H265.116V8.52758V0L256.233 0Z" fill="white"/>
</svg>
