<svg width="56" height="54" viewBox="0 0 56 54" fill="none" xmlns="http://www.w3.org/2000/svg">
<path d="M42.3239 10.1461C42.2876 10.1433 42.2569 10.125 42.219 10.125H26.542C24.1299 10.125 22.167 12.0178 22.167 14.3438V15.7499C22.167 16.5263 22.8201 17.1563 23.6252 17.1563C24.4303 17.1563 25.0835 16.5263 25.0835 15.7499V14.3438C25.0835 13.569 25.7382 12.9376 26.542 12.9376H33.3363L32.8914 13.081C31.7103 13.4747 30.917 14.5477 30.917 15.7499V36.8437H26.542C25.7382 36.8437 25.0835 36.2123 25.0835 35.4375V32.6249C25.0835 31.8488 24.4303 31.2188 23.6252 31.2188C22.8201 31.2188 22.167 31.8488 22.167 32.6249V35.4375C22.167 37.7634 24.1299 39.6562 26.542 39.6562H30.917V41.0624C30.917 42.6135 32.2249 43.875 33.8335 43.875C34.1456 43.875 34.4418 43.8315 34.7625 43.7357L43.5242 40.919C44.7069 40.5253 45.5002 39.4523 45.5002 38.2501V12.9376C45.5002 11.2979 44.0345 10.0125 42.3239 10.1461Z" fill="#F86F03"/>
<path d="M26.1142 23.1933L20.281 17.5683C19.8639 17.1661 19.2369 17.0451 18.6914 17.2632C18.1474 17.4811 17.7918 17.9945 17.7918 18.5625V22.7813H11.9582C11.1534 22.7813 10.5 23.4114 10.5 24.1874C10.5 24.9638 11.1534 25.5939 11.9582 25.5939H17.7918V29.8126C17.7918 30.3806 18.1474 30.8938 18.6914 31.1119C19.2369 31.3297 19.8639 31.209 20.281 30.8068L26.1142 25.1816C26.6846 24.6319 26.6846 23.7433 26.1142 23.1933Z" fill="#F86F03"/>
</svg>
