<svg width="396" height="241" viewBox="0 0 396 241" fill="none" xmlns="http://www.w3.org/2000/svg">
<path d="M45.2446 12.814V0L31.9775 0L11.4901 0L0 0L0 12.814L0 30.7874H11.4901V12.814H31.9775V102.337H16.072V115H31.9775H45.2446H61.1502V102.337H45.2446V12.814Z" fill="#0F4C75"/>
<path d="M113.373 0V12.736L162.67 12.736V49.4993H117.315V62.1619H162.67V102.337H113.373V115H162.67H175.939V102.337V62.1619V49.4993V12.736V0L162.67 0L113.373 0Z" fill="#0F4C75"/>
<path d="M222.973 0V12.736L272.304 12.736V49.4993H226.917V62.1619H272.304V102.337H222.973V115H272.304H285.582V102.337V62.1619V49.4993V12.736V0L272.304 0L222.973 0Z" fill="#0F4C75"/>
<path d="M382.684 0L329.566 0V0.0779661V12.736V40.735H341.057V12.736L382.684 12.736V115H395.952V12.736V0L382.684 0Z" fill="#0F4C75"/>
<path d="M90.203 137.878C94.2516 130.55 101.963 126 110.335 126H231.766H300.844C319.954 126 330.729 147.954 319.037 163.071L303.237 183.5L267.253 231.75C262.912 237.571 256.077 241 248.816 241H226.377C219.28 241 213.936 234.543 215.262 227.571V227.571C217.354 216.58 203.924 209.546 196.08 217.525L176.531 237.41C174.273 239.706 171.187 241 167.966 241H164.596C157.882 241 153.217 234.319 155.53 228.016V228.016V228.016C158.542 217.463 145.592 209.773 137.767 217.467L136.471 218.742L119.331 235.9C116.069 239.165 111.642 241 107.027 241V241C100.695 241 94.8644 237.56 91.803 232.018L71.144 194.622C67.3203 187.7 67.3203 179.3 71.144 172.378L90.203 137.878Z" fill="#0F4C75"/>
<path d="M90.6405 137.878C94.6891 130.55 102.4 126 110.773 126H232.204H301.281C320.392 126 331.166 147.954 319.475 163.071L303.675 183.5L267.69 231.75C263.349 237.571 256.515 241 249.253 241H226.814C219.718 241 214.373 234.543 215.7 227.571V227.571C217.791 216.58 204.362 209.546 196.518 217.525L176.968 237.41C174.71 239.706 171.624 241 168.404 241H165.033C158.32 241 153.655 234.319 155.968 228.016V228.016V228.016C158.98 217.463 146.029 209.773 138.205 217.467L136.909 218.742L119.768 235.9C116.506 239.165 112.08 241 107.464 241V241C101.133 241 95.3019 237.56 92.2405 232.018L71.5815 194.622C67.7578 187.7 67.7578 179.3 71.5815 172.378L90.6405 137.878Z" fill="#0F4C75"/>
<ellipse cx="202.316" cy="226.316" rx="7.94125" ry="9.27419" fill="#0F4C75"/>
<ellipse cx="142.824" cy="228.016" rx="7.94125" ry="9.27419" fill="#0F4C75"/>
<rect width="33.2876" height="51.3655" rx="15" transform="matrix(0.780437 0.625234 -0.506481 0.862251 281.611 129.71)" fill="#BBE1FA"/>
<rect x="198.416" y="144.55" width="25.412" height="25.9677" rx="7" fill="#BBE1FA"/>
<rect x="198.416" y="144.55" width="25.412" height="25.9677" rx="7" fill="#BBE1FA"/>
<rect x="160.299" y="144.55" width="25.412" height="25.9677" rx="7" fill="#BBE1FA"/>
<rect x="160.299" y="144.55" width="25.412" height="25.9677" rx="7" fill="#BBE1FA"/>
<rect x="122.18" y="144.55" width="25.412" height="25.9677" rx="7" fill="#BBE1FA"/>
<rect x="122.18" y="144.55" width="25.412" height="25.9677" rx="7" fill="#BBE1FA"/>
</svg>
