<svg width="53" height="57" viewBox="0 0 53 57" fill="none" xmlns="http://www.w3.org/2000/svg">
<path d="M26.4592 56.9871C31.0913 56.9871 34.9663 53.6861 35.8561 49.3168H17.0623C17.9525 53.6861 21.8274 56.9871 26.4592 56.9871V56.9871Z" fill="white"/>
<path d="M44.3936 26.3037L44.3627 26.306C44.3627 26.306 44.8965 21.5887 44.3936 18.6358C42.8142 9.36093 37.5334 1.74784 28.1704 0.825271C27.5045 0.759657 26.4592 0.738663 26.4592 0.738663C16.5715 0.738663 8.55564 8.75114 8.55564 18.6358V25.7639C8.55564 30.8237 6.33813 35.5999 2.44777 38.8877C1.15098 39.9949 0.575415 41.7589 1.04093 43.4799C1.58325 45.4817 3.56285 46.7602 5.63986 46.7602H47.2658C49.4449 46.7602 51.499 45.3487 51.9411 43.2139C52.2839 41.5623 51.6957 39.913 50.4144 38.8367C46.6954 35.7202 44.5444 31.1407 44.3936 26.3037Z" fill="white"/>
</svg>
